<?xml version="1.0" encoding="UTF-8" standalone="no"?>
<!-- Created with Inkscape (http://www.inkscape.org/) -->

<svg
   xmlns:dc="http://purl.org/dc/elements/1.1/"
   xmlns:cc="http://creativecommons.org/ns#"
   xmlns:rdf="http://www.w3.org/1999/02/22-rdf-syntax-ns#"
   xmlns:svg="http://www.w3.org/2000/svg"
   xmlns="http://www.w3.org/2000/svg"
   xmlns:sodipodi="http://sodipodi.sourceforge.net/DTD/sodipodi-0.dtd"
   xmlns:inkscape="http://www.inkscape.org/namespaces/inkscape"
   width="19.56735mm"
   height="10.73571mm"
   viewBox="0 0 19.56735 10.73571"
   version="1.1"
   id="svg18463"
   inkscape:version="0.92.3 (2405546, 2018-03-11)"
   sodipodi:docname="logo-iatext.svg">
  <defs
     id="defs18457" />
  <sodipodi:namedview
     id="base"
     pagecolor="#ffffff"
     bordercolor="#666666"
     borderopacity="1.0"
     inkscape:pageopacity="0.0"
     inkscape:pageshadow="2"
     inkscape:zoom="7.2407734"
     inkscape:cx="37.256646"
     inkscape:cy="10.610033"
     inkscape:document-units="mm"
     inkscape:current-layer="layer1"
     showgrid="false"
     inkscape:window-width="1920"
     inkscape:window-height="1017"
     inkscape:window-x="-8"
     inkscape:window-y="-8"
     inkscape:window-maximized="1" />
  <metadata
     id="metadata18460">
    <rdf:RDF>
      <cc:Work
         rdf:about="">
        <dc:format>image/svg+xml</dc:format>
        <dc:type
           rdf:resource="http://purl.org/dc/dcmitype/StillImage" />
        <dc:title />
      </cc:Work>
    </rdf:RDF>
  </metadata>
  <g
     inkscape:label="Capa 1"
     inkscape:groupmode="layer"
     id="layer1"
     transform="translate(-94.865719,-182.69229)">
    <g
       id="g840">
      <path
         inkscape:connector-curvature="0"
         id="path14002"
         style="fill:#050301;fill-opacity:1;fill-rule:nonzero;stroke:none;stroke-width:0.35277778"
         d="m 94.865719,185.55572 h 0.672748 v 3.65584 h -0.672748 z" />
      <path
         d="m 102.98226,183.77635 -5.759101,-1.08373 -1.418161,9.65164 5.760502,1.08374 z"
         style="fill:#050301;fill-opacity:1;fill-rule:nonzero;stroke:none;stroke-width:0.35277778"
         id="path14014"
         inkscape:connector-curvature="0" />
      <path
         d="m 100.5483,184.55115 -1.310222,-0.24624 -2.875489,5.53579 1.399468,0.26599 0.566561,-1.14405 1.791762,0.33796 0.20214,1.28799 1.36666,0.25753 -1.14088,-6.29497 m -1.767771,3.46922 0.86043,-1.75366 0.313618,1.97414 z"
         style="fill:#ffffff;fill-opacity:1;fill-rule:nonzero;stroke:none;stroke-width:0.35277778"
         id="path14026"
         inkscape:connector-curvature="0" />
      <path
         d="m 105.32699,186.41527 v 0.15981 h -0.60819 l -0.48613,2.0828 c -0.004,0.0201 -0.008,0.0384 -0.01,0.0526 -0.003,0.0155 -0.004,0.0272 -0.004,0.0363 0,0.0423 0.0127,0.0741 0.0353,0.0945 0.024,0.0208 0.0589,0.031 0.10407,0.031 0.0907,0 0.19826,-0.0688 0.32314,-0.20603 0.12347,-0.13652 0.22507,-0.30726 0.30198,-0.51117 l 0.1464,0.0713 c -0.11077,0.29704 -0.2734,0.53905 -0.48719,0.72708 -0.21484,0.18838 -0.4325,0.28222 -0.65475,0.28222 -0.15417,0 -0.27834,-0.0367 -0.37218,-0.11007 -0.0938,-0.0741 -0.14111,-0.17215 -0.14111,-0.29422 0,-0.0413 0.005,-0.0903 0.0141,-0.14746 0.008,-0.0579 0.0219,-0.12664 0.0406,-0.20637 l 0.44485,-1.90253 h -0.45156 v -0.15981 h 0.50307 l 0.17956,-0.69991 c 0.14076,-0.005 0.27517,-0.0173 0.40287,-0.0378 0.12771,-0.0201 0.24871,-0.0476 0.36195,-0.0815 l -0.17991,0.81915 z"
         style="fill:#1d1d1d;fill-opacity:1;fill-rule:nonzero;stroke:none;stroke-width:0.35277778"
         id="path14030"
         inkscape:connector-curvature="0" />
      <path
         d="m 106.64405,187.77473 h 0.13899 c 0.38277,0 0.65723,-0.0656 0.82268,-0.19544 0.16545,-0.13053 0.24836,-0.34149 0.24836,-0.63394 0,-0.13794 -0.0339,-0.24589 -0.10196,-0.3235 -0.0684,-0.0762 -0.16263,-0.11571 -0.28222,-0.11571 -0.1972,0 -0.36159,0.10125 -0.4953,0.30163 -0.13194,0.20037 -0.24236,0.52246 -0.33055,0.96696 m 1.56351,0.56374 0.13864,0.0815 c -0.1404,0.25365 -0.3242,0.4512 -0.55174,0.59196 -0.22754,0.14005 -0.48013,0.21061 -0.75636,0.21061 -0.35771,0 -0.65193,-0.10971 -0.883,-0.32879 -0.23177,-0.21837 -0.34678,-0.49565 -0.34678,-0.83361 0,-0.44909 0.17074,-0.84526 0.5147,-1.18992 0.3429,-0.34431 0.73978,-0.51612 1.19063,-0.51612 0.28363,0 0.51541,0.0656 0.69532,0.19862 0.17992,0.13264 0.27058,0.30339 0.27058,0.51117 0,0.27446 -0.13758,0.49107 -0.41169,0.65158 -0.27375,0.15946 -0.65123,0.23883 -1.13206,0.23883 -0.036,0 -0.0776,-10e-4 -0.12524,-0.003 -0.0476,-0.003 -0.11853,-0.006 -0.21413,-0.0102 -0.0318,0.11254 -0.0547,0.21378 -0.0692,0.30198 -0.0152,0.0885 -0.0229,0.16333 -0.0229,0.22472 0,0.18485 0.0497,0.32843 0.14958,0.42756 0.0998,0.0998 0.24271,0.15029 0.42827,0.15029 0.21096,0 0.41522,-0.0617 0.61172,-0.18556 0.19685,-0.12348 0.3683,-0.29775 0.51364,-0.52176"
         style="fill:#1d1d1d;fill-opacity:1;fill-rule:nonzero;stroke:none;stroke-width:0.35277778"
         id="path14034"
         inkscape:connector-curvature="0" />
      <path
         d="m 111.67526,188.15506 0.12594,0.0646 c -0.12911,0.33972 -0.28046,0.59196 -0.45579,0.756 -0.17462,0.1644 -0.37641,0.24659 -0.60783,0.24659 -0.14746,0 -0.26071,-0.0413 -0.33973,-0.12241 -0.0794,-0.0815 -0.14287,-0.2219 -0.19085,-0.42157 l -0.11536,-0.53728 h -0.0575 c -0.0318,0.048 -0.0762,0.11465 -0.13265,0.20073 -0.39229,0.58702 -0.70273,0.88053 -0.93133,0.88053 -0.0998,0 -0.17851,-0.03 -0.23777,-0.0889 -0.0589,-0.0586 -0.0885,-0.13652 -0.0885,-0.23424 0,-0.0861 0.0279,-0.15734 0.0822,-0.21379 0.054,-0.0568 0.12453,-0.0847 0.21025,-0.0847 0.0776,0 0.14958,0.0268 0.21908,0.0811 0.0691,0.0547 0.11183,0.0818 0.12806,0.0818 0.0423,0 0.11218,-0.0564 0.20884,-0.16827 0.0956,-0.11254 0.26988,-0.34608 0.52176,-0.70238 l -0.18098,-0.83538 c -0.0314,-0.13829 -0.0614,-0.22543 -0.0899,-0.25965 -0.0282,-0.0356 -0.0677,-0.0533 -0.1203,-0.0533 -0.0522,0 -0.10301,0.0247 -0.15311,0.0751 -0.0497,0.049 -0.11853,0.15381 -0.20708,0.31256 l -0.17321,0.30586 -0.12594,-0.0681 c 0.17004,-0.35807 0.33408,-0.61701 0.49248,-0.77717 0.1591,-0.15946 0.32878,-0.23918 0.51011,-0.23918 0.14252,0 0.26141,0.0437 0.35701,0.13088 0.0952,0.0871 0.15769,0.20955 0.1898,0.36936 l 0.0649,0.32208 h 0.061 c 0.22189,-0.32173 0.39439,-0.5394 0.51681,-0.65228 0.12207,-0.11325 0.23989,-0.17004 0.35314,-0.17004 0.0974,0 0.17391,0.0275 0.22965,0.0815 0.0554,0.0543 0.0829,0.12876 0.0829,0.22507 0,0.0928 -0.025,0.16228 -0.0762,0.20814 -0.0508,0.0466 -0.12734,0.0706 -0.2293,0.0706 -0.0547,0 -0.11183,-0.0201 -0.1718,-0.0603 -0.06,-0.0395 -0.1023,-0.0589 -0.12735,-0.0589 -0.043,0 -0.0864,0.0176 -0.12912,0.0543 -0.0434,0.0363 -0.0995,0.10407 -0.16933,0.20356 l -0.2794,0.41098 0.23107,1.10808 c 0.0159,0.0836 0.043,0.14993 0.0818,0.1972 0.0385,0.0473 0.0829,0.0713 0.13264,0.0713 0.0794,0 0.16827,-0.0596 0.26811,-0.17992 0.0998,-0.11994 0.20743,-0.29668 0.32279,-0.53022"
         style="fill:#1d1d1d;fill-opacity:1;fill-rule:nonzero;stroke:none;stroke-width:0.35277778"
         id="path14038"
         inkscape:connector-curvature="0" />
      <path
         d="m 114.43307,186.41527 v 0.15981 h -0.60854 l -0.48613,2.0828 c -0.004,0.0201 -0.008,0.0384 -0.01,0.0526 -0.002,0.0155 -0.004,0.0272 -0.004,0.0363 0,0.0423 0.0123,0.0741 0.036,0.0945 0.0236,0.0208 0.0586,0.031 0.10407,0.031 0.0903,0 0.19755,-0.0688 0.32279,-0.20603 0.12418,-0.13652 0.22507,-0.30726 0.30162,-0.51117 l 0.14605,0.0713 c -0.11041,0.29704 -0.27305,0.53905 -0.48648,0.72708 -0.21484,0.18838 -0.43285,0.28222 -0.6551,0.28222 -0.15382,0 -0.27764,-0.0367 -0.37183,-0.11007 -0.0942,-0.0741 -0.14147,-0.17215 -0.14147,-0.29422 0,-0.0413 0.005,-0.0903 0.0145,-0.14746 0.008,-0.0579 0.0222,-0.12664 0.0402,-0.20637 l 0.44486,-1.90253 h -0.45156 v -0.15981 h 0.50306 l 0.17992,-0.69991 c 0.14076,-0.005 0.27481,-0.0173 0.40287,-0.0378 0.12771,-0.0201 0.24836,-0.0476 0.36195,-0.0815 l -0.17991,0.81915 z"
         style="fill:#1d1d1d;fill-opacity:1;fill-rule:nonzero;stroke:none;stroke-width:0.35277778"
         id="path14042"
         inkscape:connector-curvature="0" />
      <path
         inkscape:connector-curvature="0"
         id="path14044"
         style="fill:#050301;fill-opacity:1;fill-rule:nonzero;stroke:none;stroke-width:0.35277778"
         d="m 94.865719,185.55572 h 0.672748 v 3.65584 h -0.672748 z" />
      <path
         d="m 95.80612,192.34394 1.416759,-9.65165 5.760151,1.08374 -1.4164,9.65164 z"
         style="fill:#c92327;fill-opacity:1;fill-rule:nonzero;stroke:none;stroke-width:0.35277778"
         id="path14048"
         inkscape:connector-curvature="0" />
      <path
         d="m 102.98296,183.77635 -5.759801,-1.08373 -1.417111,9.65164 5.760152,1.08374 z"
         style="fill:#c92327;fill-opacity:1;fill-rule:nonzero;stroke:none;stroke-width:0.35277778"
         id="path14060"
         inkscape:connector-curvature="0" />
      <path
         d="m 100.5483,184.55115 -1.310222,-0.24624 -2.875489,5.53579 1.399468,0.26599 0.566561,-1.14405 1.791762,0.33796 0.20214,1.28799 1.36666,0.25753 -1.14088,-6.29497 m -1.767771,3.46922 0.86043,-1.75366 0.313618,1.97414 z"
         style="fill:#ffffff;fill-opacity:1;fill-rule:nonzero;stroke:none;stroke-width:0.35277778"
         id="path14072"
         inkscape:connector-curvature="0" />
      <path
         inkscape:connector-curvature="0"
         id="path14074"
         style="fill:#1d1d1d;fill-opacity:1;fill-rule:nonzero;stroke:none;stroke-width:0.35277778"
         d="m 94.865719,185.55572 h 0.672748 v 3.65584 h -0.672748 z" />
      <path
         d="m 100.5483,184.55115 -1.310222,-0.24624 -2.875489,5.53579 1.399468,0.26599 0.566561,-1.14405 1.791762,0.33796 0.20214,1.28799 1.36666,0.25753 -1.14088,-6.29497 m -1.767771,3.46922 0.86043,-1.75366 0.313618,1.97414 z"
         style="fill:#ffffff;fill-opacity:1;fill-rule:nonzero;stroke:none;stroke-width:0.35277778"
         id="path14078"
         inkscape:connector-curvature="0" />
    </g>
  </g>
</svg>
