<?xml version="1.0" encoding="UTF-8" standalone="no"?>
<!-- Created with Inkscape (http://www.inkscape.org/) -->

<svg
   xmlns:dc="http://purl.org/dc/elements/1.1/"
   xmlns:cc="http://creativecommons.org/ns#"
   xmlns:rdf="http://www.w3.org/1999/02/22-rdf-syntax-ns#"
   xmlns:svg="http://www.w3.org/2000/svg"
   xmlns="http://www.w3.org/2000/svg"
   xmlns:xlink="http://www.w3.org/1999/xlink"
   xmlns:sodipodi="http://sodipodi.sourceforge.net/DTD/sodipodi-0.dtd"
   xmlns:inkscape="http://www.inkscape.org/namespaces/inkscape"
   width="191.81793mm"
   height="25.176584mm"
   viewBox="0 0 191.81793 25.176584"
   version="1.1"
   id="svg1037"
   inkscape:version="0.92.3 (2405546, 2018-03-11)"
   sodipodi:docname="titulo.svg">
  <defs
     id="defs1031">
    <linearGradient
       inkscape:collect="always"
       xlink:href="#linearGradient1294"
       id="linearGradient1410"
       gradientUnits="userSpaceOnUse"
       gradientTransform="translate(-907.68712,-18.93887)"
       x1="1004.9656"
       y1="192.94077"
       x2="1004.9656"
       y2="182.97238" />
    <linearGradient
       inkscape:collect="always"
       id="linearGradient1294">
      <stop
         style="stop-color:#e1a54b;stop-opacity:0.6231156"
         offset="0"
         id="stop1290" />
      <stop
         style="stop-color:#e1a54b;stop-opacity:1"
         offset="1"
         id="stop1292" />
    </linearGradient>
    <linearGradient
       inkscape:collect="always"
       xlink:href="#linearGradient1294"
       id="linearGradient1662"
       gradientUnits="userSpaceOnUse"
       gradientTransform="translate(-907.68712,-18.93887)"
       x1="1004.9656"
       y1="192.94077"
       x2="1004.9656"
       y2="182.97238" />
    <linearGradient
       inkscape:collect="always"
       xlink:href="#linearGradient1294"
       id="linearGradient1664"
       gradientUnits="userSpaceOnUse"
       gradientTransform="translate(-907.68712,-18.93887)"
       x1="1004.9656"
       y1="192.94077"
       x2="1004.9656"
       y2="182.97238" />
    <linearGradient
       inkscape:collect="always"
       xlink:href="#linearGradient1294"
       id="linearGradient1666"
       gradientUnits="userSpaceOnUse"
       gradientTransform="translate(-907.68712,-18.93887)"
       x1="1004.9656"
       y1="192.94077"
       x2="1004.9656"
       y2="182.97238" />
    <linearGradient
       inkscape:collect="always"
       xlink:href="#linearGradient1294"
       id="linearGradient1668"
       gradientUnits="userSpaceOnUse"
       gradientTransform="translate(-907.68712,-18.93887)"
       x1="1004.9656"
       y1="192.94077"
       x2="1004.9656"
       y2="182.97238" />
    <linearGradient
       inkscape:collect="always"
       xlink:href="#linearGradient1294"
       id="linearGradient1670"
       gradientUnits="userSpaceOnUse"
       gradientTransform="translate(-907.68712,-18.93887)"
       x1="1004.9656"
       y1="192.94077"
       x2="1004.9656"
       y2="182.97238" />
    <linearGradient
       inkscape:collect="always"
       xlink:href="#linearGradient1294"
       id="linearGradient1672"
       gradientUnits="userSpaceOnUse"
       gradientTransform="translate(-907.68712,-18.93887)"
       x1="1004.9656"
       y1="192.94077"
       x2="1004.9656"
       y2="182.97238" />
    <linearGradient
       inkscape:collect="always"
       xlink:href="#linearGradient1294"
       id="linearGradient1674"
       gradientUnits="userSpaceOnUse"
       gradientTransform="translate(-907.68712,-18.93887)"
       x1="1004.9656"
       y1="192.94077"
       x2="1004.9656"
       y2="182.97238" />
    <linearGradient
       inkscape:collect="always"
       xlink:href="#linearGradient1294"
       id="linearGradient1676"
       gradientUnits="userSpaceOnUse"
       gradientTransform="translate(-907.68712,-18.93887)"
       x1="1004.9656"
       y1="192.94077"
       x2="1004.9656"
       y2="182.97238" />
    <linearGradient
       inkscape:collect="always"
       xlink:href="#linearGradient1294"
       id="linearGradient1678"
       gradientUnits="userSpaceOnUse"
       gradientTransform="translate(-907.68712,-18.93887)"
       x1="1004.9656"
       y1="192.94077"
       x2="1004.9656"
       y2="182.97238" />
    <linearGradient
       inkscape:collect="always"
       xlink:href="#linearGradient1294"
       id="linearGradient1680"
       gradientUnits="userSpaceOnUse"
       gradientTransform="translate(-907.68712,-18.93887)"
       x1="1004.9656"
       y1="192.94077"
       x2="1004.9656"
       y2="182.97238" />
    <linearGradient
       inkscape:collect="always"
       xlink:href="#linearGradient1294"
       id="linearGradient1682"
       gradientUnits="userSpaceOnUse"
       gradientTransform="translate(-907.68712,-18.93887)"
       x1="1004.9656"
       y1="192.94077"
       x2="1004.9656"
       y2="182.97238" />
  </defs>
  <sodipodi:namedview
     id="base"
     pagecolor="#ffffff"
     bordercolor="#666666"
     borderopacity="1.0"
     inkscape:pageopacity="0.0"
     inkscape:pageshadow="2"
     inkscape:zoom="0.35"
     inkscape:cx="-180.36658"
     inkscape:cy="299.00637"
     inkscape:document-units="mm"
     inkscape:current-layer="layer1"
     showgrid="false"
     inkscape:window-width="1920"
     inkscape:window-height="1017"
     inkscape:window-x="-8"
     inkscape:window-y="-8"
     inkscape:window-maximized="1" />
  <metadata
     id="metadata1034">
    <rdf:RDF>
      <cc:Work
         rdf:about="">
        <dc:format>image/svg+xml</dc:format>
        <dc:type
           rdf:resource="http://purl.org/dc/dcmitype/StillImage" />
        <dc:title></dc:title>
      </cc:Work>
    </rdf:RDF>
  </metadata>
  <g
     inkscape:label="Capa 1"
     inkscape:groupmode="layer"
     id="layer1"
     transform="translate(-4.6327043,-202.76885)">
    <g
       transform="translate(-2.267934,48.879295)"
       aria-label="SENTENTIAPP"
       style="font-style:normal;font-weight:normal;font-size:10.58333302px;line-height:1.25;font-family:sans-serif;letter-spacing:0px;word-spacing:0px;display:inline;fill:url(#linearGradient1410);fill-opacity:1;stroke:none;stroke-width:0.26458332"
       id="text1244-4-3">
      <path
         inkscape:connector-curvature="0"
         d="m 6.9006383,178.48407 v -6.27944 q 0,-0.29986 0.2116667,-0.33514 0.2116667,-0.0529 0.3175,0.19403 0.635,1.44638 1.3758334,2.55763 0.7584722,1.11125 1.6580556,1.86973 0.917222,0.74083 2.010833,1.12889 1.093611,0.38805 2.434167,0.38805 0.758472,0 1.446389,-0.21167 0.687917,-0.2293 1.199444,-0.70555 0.529167,-0.47625 0.829028,-1.21708 0.3175,-0.74084 0.3175,-1.78153 0,-0.98778 -0.370416,-1.72861 -0.352778,-0.75848 -0.970139,-1.34056 -0.599723,-0.58208 -1.375834,-1.00542 -0.776111,-0.44097 -1.5875,-0.79375 -0.899583,-0.38805 -1.781528,-0.81138 -0.864305,-0.42334 -1.658055,-0.9525 -0.79375,-0.52917 -1.464028,-1.21709 -0.6526389,-0.68791 -1.11125,-1.5875 -0.4056944,-0.77611 -0.635,-1.5875 -0.2116667,-0.81139 -0.2116667,-1.67569 0,-1.25236 0.4409723,-2.52236 0.4409722,-1.27 1.4463889,-2.29306 1.0054165,-1.02305 2.6105555,-1.65805 1.622778,-0.65264 3.986389,-0.65264 1.499306,0 2.592917,0.24694 1.093611,0.22931 1.816805,0.52917 0.740834,0.28222 1.128889,0.5468 0.388056,0.24695 0.440973,0.29986 0.211666,0.15875 0.211666,0.37042 v 3.21028 q 0,0.12347 -0.07055,0.21167 -0.07056,0.0705 -0.15875,0.0882 -0.08819,0 -0.176389,-0.0353 -0.08819,-0.0529 -0.141111,-0.17639 -0.335139,-0.79375 -0.79375,-1.56986 -0.458611,-0.79375 -1.164167,-1.39347 -0.687917,-0.61736 -1.693333,-0.98778 -1.005417,-0.38805 -2.416528,-0.38805 -1.834445,0 -2.8575,0.8643 -1.023056,0.86431 -1.023056,2.34597 0,0.84667 0.282222,1.48167 0.282223,0.635 0.9525,1.19945 0.687917,0.5468 1.816806,1.11125 1.128889,0.5468 2.839861,1.23472 1.658056,0.67028 2.928056,1.44639 1.27,0.77611 2.116666,1.74625 0.864306,0.9525 1.287639,2.16958 0.440973,1.21708 0.440973,2.78694 0,1.55223 -0.564445,2.91042 -0.546805,1.3582 -1.693333,2.38125 -1.146528,1.00542 -2.892778,1.5875 -1.74625,0.58208 -4.109861,0.58208 -1.499306,0 -2.980973,-0.38805 -1.464027,-0.37042 -2.8398607,-0.82903 -0.1940278,-0.0706 -0.4233334,-0.14111 -0.2293055,-0.0706 -0.4409722,-0.0706 -0.4233334,0 -0.6173611,0.28223 -0.1940278,0.26458 -0.3704167,0.67027 -0.1058334,0.24695 -0.3351389,0.21167 -0.2116667,-0.0353 -0.2116667,-0.3175 z"
         style="font-style:normal;font-variant:normal;font-weight:normal;font-stretch:normal;font-size:35.27777863px;font-family:Mermaid;-inkscape-font-specification:Mermaid;fill:url(#linearGradient1662);fill-opacity:1;stroke-width:0.26458332"
         id="path892" />
      <path
         inkscape:connector-curvature="0"
         d="m 40.464246,174.50827 q 0.08467,-0.22578 0.268111,-0.19756 0.183444,0.0141 0.183444,0.23989 v 3.75355 q 0,0.26812 -0.296333,0.26812 H 25.633469 q -0.141112,0 -0.211667,-0.0565 -0.07056,-0.0705 -0.08467,-0.14111 0,-0.0847 0.05645,-0.15522 0.07055,-0.0706 0.197555,-0.0988 0.169334,-0.0282 0.536222,-0.11289 0.366889,-0.0988 0.733778,-0.33867 0.381,-0.23988 0.663222,-0.64911 0.282223,-0.40922 0.282223,-1.07244 v -13.80067 q 0,-0.64911 -0.282223,-1.05833 -0.282222,-0.42333 -0.663222,-0.64911 -0.366889,-0.23989 -0.733778,-0.33867 -0.366888,-0.0988 -0.536222,-0.127 -0.127,-0.0141 -0.197555,-0.0847 -0.05645,-0.0847 -0.05645,-0.15523 0.01411,-0.0847 0.08467,-0.14111 0.07055,-0.0705 0.211667,-0.0705 h 13.758333 q 0.296333,0 0.296333,0.26811 v 2.93511 q 0,0.21166 -0.169334,0.23989 -0.169333,0.0141 -0.282222,-0.18345 -0.08467,-0.18344 -0.338666,-0.57855 -0.254,-0.40922 -0.705556,-0.81845 -0.451555,-0.42333 -1.128889,-0.73377 -0.677333,-0.32456 -1.622777,-0.32456 -0.663223,0 -1.213556,0.11289 -0.550333,0.11289 -0.945444,0.36689 -0.381,0.23989 -0.606778,0.635 -0.211667,0.381 -0.211667,0.93133 v 5.95489 -0.21167 q 0,0.0847 0.05645,0.15522 0.07055,0.0564 0.155222,0.0564 h 1.806222 q 0.635,0 1.030111,-0.254 0.409222,-0.254 0.635,-0.59267 0.239889,-0.33866 0.338667,-0.66322 0.09878,-0.33867 0.127,-0.508 0.01411,-0.11289 0.08467,-0.15522 0.08467,-0.0565 0.155223,-0.0423 0.08467,0 0.141111,0.0706 0.07055,0.0564 0.07055,0.16933 v 4.79778 q 0,0.11289 -0.07055,0.18345 -0.05645,0.0564 -0.141111,0.0705 -0.07056,0 -0.155223,-0.0423 -0.07055,-0.0565 -0.08467,-0.16934 -0.02822,-0.16933 -0.127,-0.49388 -0.09878,-0.33867 -0.338667,-0.67734 -0.225778,-0.33866 -0.635,-0.59266 -0.395111,-0.254 -1.030111,-0.254 h -1.806222 q -0.08467,0 -0.155222,0.0705 -0.05645,0.0564 -0.05645,0.14111 v -0.21166 6.50522 q 0,1.00189 0.874889,1.524 0.874889,0.52211 2.483555,0.52211 0.762,0 1.382889,-0.19756 0.635,-0.21166 1.128889,-0.52211 0.508,-0.31044 0.874889,-0.69144 0.381,-0.39511 0.635,-0.74789 0.268111,-0.35278 0.409222,-0.635 0.155222,-0.29633 0.211667,-0.42333 z"
         style="font-size:28.22222137px;fill:url(#linearGradient1664);fill-opacity:1;stroke-width:0.26458332"
         id="path894" />
      <path
         inkscape:connector-curvature="0"
         d="m 60.399276,159.52227 q 0.141111,0 0.211666,0.0705 0.07056,0.0565 0.07056,0.14111 0.01411,0.0706 -0.05644,0.15523 -0.05644,0.0705 -0.183445,0.0847 -0.169333,0.0282 -0.536222,0.127 -0.366889,0.0988 -0.747889,0.33867 -0.366889,0.22578 -0.649111,0.64911 -0.282222,0.40922 -0.282222,1.05833 v 16.256 q 0,0.21167 -0.169334,0.28222 -0.155222,0.0847 -0.338666,-0.0988 -0.04233,-0.0423 -0.423334,-0.47978 -0.366888,-0.45156 -0.987777,-1.18533 -0.620889,-0.73378 -1.439334,-1.69334 -0.818444,-0.97366 -1.735666,-2.04611 -0.903111,-1.08655 -1.862667,-2.22955 -0.959555,-1.143 -1.862666,-2.21545 -0.903112,-1.08655 -1.707445,-2.04611 -0.804333,-0.95956 -1.411111,-1.67922 -0.606778,-0.71967 -0.973667,-1.143 -0.352777,-0.42334 -0.366888,-0.43745 -0.09878,-0.0988 -0.169334,-0.0564 -0.07055,0.0282 -0.07055,0.15522 v 12.41778 q 0,0.66322 0.282222,1.07244 0.282222,0.40923 0.649111,0.64911 0.381,0.23989 0.747889,0.33867 0.366889,0.0847 0.536222,0.11289 0.127,0.0282 0.183445,0.0988 0.07055,0.0705 0.05644,0.15522 0,0.0706 -0.07056,0.14111 -0.07055,0.0565 -0.211666,0.0565 H 41.51861 q -0.141111,0 -0.211667,-0.0565 -0.07056,-0.0705 -0.08467,-0.14111 0,-0.0847 0.05644,-0.15522 0.07056,-0.0706 0.197555,-0.0988 0.169334,-0.0282 0.536223,-0.11289 0.366888,-0.0988 0.733777,-0.33867 0.381,-0.23988 0.663223,-0.64911 0.282222,-0.40922 0.282222,-1.07244 v -13.80067 q 0,-0.64911 -0.282222,-1.05833 -0.282223,-0.42333 -0.663223,-0.64911 -0.366889,-0.23989 -0.733777,-0.33867 -0.366889,-0.0988 -0.536223,-0.127 -0.127,-0.0141 -0.197555,-0.0847 -0.05644,-0.0847 -0.05644,-0.15523 0.01411,-0.0847 0.08467,-0.14111 0.07056,-0.0705 0.211667,-0.0705 h 5.602111 q 0.437444,0 0.691444,0.29633 0.268111,0.32456 0.804333,0.95956 0.536223,0.635 1.213556,1.45344 0.691444,0.80433 1.467555,1.74978 0.790223,0.93133 1.566334,1.86266 0.790222,0.91723 1.509889,1.778 0.733777,0.86078 1.298222,1.53811 0.564444,0.66323 0.903111,1.07245 0.352778,0.40922 0.381,0.43744 0.112889,0.11289 0.183444,0.0847 0.07056,-0.0282 0.07056,-0.16933 v -8.43845 q 0,-0.64911 -0.282222,-1.05833 -0.282223,-0.42333 -0.663223,-0.64911 -0.366889,-0.23989 -0.733777,-0.33867 -0.366889,-0.0988 -0.536223,-0.127 -0.127,-0.0141 -0.197555,-0.0847 -0.05644,-0.0847 -0.05644,-0.15523 0.01411,-0.0847 0.08467,-0.14111 0.07056,-0.0705 0.211667,-0.0705 h 5.362222 z"
         style="font-size:28.22222137px;fill:url(#linearGradient1666);fill-opacity:1;stroke-width:0.26458332"
         id="path896" />
      <path
         inkscape:connector-curvature="0"
         d="m 77.748003,159.52227 q 0.296334,0 0.296334,0.26811 v 3.92289 q 0,0.22577 -0.183445,0.254 -0.183444,0.0141 -0.268111,-0.21167 -0.05644,-0.127 -0.197555,-0.42333 -0.141112,-0.31045 -0.395112,-0.69145 -0.254,-0.381 -0.620888,-0.77611 -0.366889,-0.40922 -0.860778,-0.74789 -0.493889,-0.33866 -1.114778,-0.55033 -0.606778,-0.22578 -1.368778,-0.22578 -0.352777,0 -0.578555,0.11289 -0.225778,0.0988 -0.366889,0.28222 -0.127,0.16934 -0.183445,0.40922 -0.05644,0.23989 -0.07055,0.49389 v 14.30867 q 0,0.66322 0.282222,1.07244 0.282222,0.40923 0.649111,0.64911 0.381,0.23989 0.747889,0.33867 0.366889,0.0847 0.536222,0.11289 0.127,0.0282 0.183445,0.0988 0.07055,0.0705 0.05644,0.15522 0,0.0706 -0.07055,0.14111 -0.07056,0.0565 -0.211667,0.0565 H 65.00567 q -0.141111,0 -0.211666,-0.0565 -0.07056,-0.0705 -0.08467,-0.14111 0,-0.0847 0.05644,-0.15522 0.07056,-0.0706 0.197556,-0.0988 0.169333,-0.0282 0.536222,-0.11289 0.366889,-0.0988 0.733778,-0.33867 0.381,-0.23988 0.663222,-0.64911 0.282222,-0.40922 0.282222,-1.07244 0,-0.11289 0,-0.70556 0,-0.60677 0,-1.50989 0,-0.91722 0,-2.04611 0,-1.12889 0,-2.31422 0.01411,-1.19944 0.01411,-2.35655 0,-1.17123 0,-2.13078 0,-0.97367 0,-1.66511 0,-0.70556 0,-0.94545 0,-0.35277 -0.02822,-0.69144 -0.01411,-0.35278 -0.127,-0.62089 -0.112889,-0.28222 -0.366889,-0.45156 -0.239888,-0.16933 -0.691444,-0.16933 -0.762,0 -1.382889,0.22578 -0.620889,0.21167 -1.114778,0.55033 -0.479777,0.33867 -0.846666,0.74789 -0.366889,0.39511 -0.620889,0.77611 -0.254,0.381 -0.409222,0.69145 -0.141111,0.29633 -0.183445,0.42333 -0.08467,0.22578 -0.268111,0.21167 -0.183444,-0.0282 -0.183444,-0.254 v -3.92289 q 0,-0.26811 0.296333,-0.26811 h 16.481777 z"
         style="font-size:28.22222137px;fill:url(#linearGradient1668);fill-opacity:1;stroke-width:0.26458332"
         id="path898" />
      <path
         inkscape:connector-curvature="0"
         d="m 93.601396,174.50827 q 0.08467,-0.22578 0.268111,-0.19756 0.183444,0.0141 0.183444,0.23989 v 3.75355 q 0,0.26812 -0.296333,0.26812 h -14.986 q -0.141111,0 -0.211666,-0.0565 -0.07056,-0.0705 -0.08467,-0.14111 0,-0.0847 0.05645,-0.15522 0.07055,-0.0706 0.197555,-0.0988 0.169333,-0.0282 0.536222,-0.11289 0.366889,-0.0988 0.733778,-0.33867 0.381,-0.23988 0.663222,-0.64911 0.282222,-0.40922 0.282222,-1.07244 v -13.80067 q 0,-0.64911 -0.282222,-1.05833 -0.282222,-0.42333 -0.663222,-0.64911 -0.366889,-0.23989 -0.733778,-0.33867 -0.366889,-0.0988 -0.536222,-0.127 -0.127,-0.0141 -0.197555,-0.0847 -0.05645,-0.0847 -0.05645,-0.15523 0.01411,-0.0847 0.08467,-0.14111 0.07055,-0.0705 0.211666,-0.0705 h 13.758333 q 0.296334,0 0.296334,0.26811 v 2.93511 q 0,0.21166 -0.169334,0.23989 -0.169333,0.0141 -0.282222,-0.18345 -0.08467,-0.18344 -0.338667,-0.57855 -0.254,-0.40922 -0.705555,-0.81845 -0.451556,-0.42333 -1.128889,-0.73377 -0.677333,-0.32456 -1.622778,-0.32456 -0.663222,0 -1.213555,0.11289 -0.550334,0.11289 -0.945445,0.36689 -0.381,0.23989 -0.606777,0.635 -0.211667,0.381 -0.211667,0.93133 v 5.95489 -0.21167 q 0,0.0847 0.05644,0.15522 0.07056,0.0564 0.155223,0.0564 h 1.806222 q 0.635,0 1.030111,-0.254 0.409222,-0.254 0.635,-0.59267 0.239889,-0.33866 0.338667,-0.66322 0.09878,-0.33867 0.127,-0.508 0.01411,-0.11289 0.08467,-0.15522 0.08467,-0.0565 0.155222,-0.0423 0.08467,0 0.141111,0.0706 0.07056,0.0564 0.07056,0.16933 v 4.79778 q 0,0.11289 -0.07056,0.18345 -0.05644,0.0564 -0.141111,0.0705 -0.07055,0 -0.155222,-0.0423 -0.07055,-0.0565 -0.08467,-0.16934 -0.02822,-0.16933 -0.127,-0.49388 -0.09878,-0.33867 -0.338667,-0.67734 -0.225778,-0.33866 -0.635,-0.59266 -0.395111,-0.254 -1.030111,-0.254 h -1.806222 q -0.08467,0 -0.155223,0.0705 -0.05644,0.0564 -0.05644,0.14111 v -0.21166 6.50522 q 0,1.00189 0.874889,1.524 0.874889,0.52211 2.483555,0.52211 0.762,0 1.382889,-0.19756 0.635,-0.21166 1.128889,-0.52211 0.508,-0.31044 0.874889,-0.69144 0.381,-0.39511 0.635,-0.74789 0.268111,-0.35278 0.409222,-0.635 0.155222,-0.29633 0.211667,-0.42333 z"
         style="font-size:28.22222137px;fill:url(#linearGradient1670);fill-opacity:1;stroke-width:0.26458332"
         id="path900" />
      <path
         inkscape:connector-curvature="0"
         d="m 113.53643,159.52227 q 0.14111,0 0.21167,0.0705 0.0706,0.0565 0.0706,0.14111 0.0141,0.0706 -0.0564,0.15523 -0.0564,0.0705 -0.18345,0.0847 -0.16933,0.0282 -0.53622,0.127 -0.36689,0.0988 -0.74789,0.33867 -0.36689,0.22578 -0.64911,0.64911 -0.28222,0.40922 -0.28222,1.05833 v 16.256 q 0,0.21167 -0.16933,0.28222 -0.15523,0.0847 -0.33867,-0.0988 -0.0423,-0.0423 -0.42333,-0.47978 -0.36689,-0.45156 -0.98778,-1.18533 -0.62089,-0.73378 -1.43934,-1.69334 -0.81844,-0.97366 -1.73566,-2.04611 -0.90311,-1.08655 -1.86267,-2.22955 -0.95955,-1.143 -1.86267,-2.21545 -0.90311,-1.08655 -1.70744,-2.04611 -0.80433,-0.95956 -1.411111,-1.67922 -0.606778,-0.71967 -0.973667,-1.143 -0.352778,-0.42334 -0.366889,-0.43745 -0.09878,-0.0988 -0.169333,-0.0564 -0.07056,0.0282 -0.07056,0.15522 v 12.41778 q 0,0.66322 0.282223,1.07244 0.282222,0.40923 0.649111,0.64911 0.381,0.23989 0.747888,0.33867 0.366889,0.0847 0.536228,0.11289 0.127,0.0282 0.18344,0.0988 0.0706,0.0705 0.0565,0.15522 0,0.0706 -0.0706,0.14111 -0.0706,0.0565 -0.21166,0.0565 h -5.362231 q -0.141111,0 -0.211666,-0.0565 -0.07056,-0.0705 -0.08467,-0.14111 0,-0.0847 0.05644,-0.15522 0.07056,-0.0706 0.197556,-0.0988 0.169333,-0.0282 0.536222,-0.11289 0.366889,-0.0988 0.733778,-0.33867 0.381,-0.23988 0.663222,-0.64911 0.282222,-0.40922 0.282222,-1.07244 v -13.80067 q 0,-0.64911 -0.282222,-1.05833 -0.282222,-0.42333 -0.663222,-0.64911 -0.366889,-0.23989 -0.733778,-0.33867 -0.366889,-0.0988 -0.536222,-0.127 -0.127,-0.0141 -0.197556,-0.0847 -0.05644,-0.0847 -0.05644,-0.15523 0.01411,-0.0847 0.08467,-0.14111 0.07055,-0.0705 0.211666,-0.0705 h 5.602111 q 0.43745,0 0.69145,0.29633 0.26811,0.32456 0.80433,0.95956 0.53622,0.635 1.21356,1.45344 0.69144,0.80433 1.46755,1.74978 0.79023,0.93133 1.56634,1.86266 0.79022,0.91723 1.50989,1.778 0.73377,0.86078 1.29822,1.53811 0.56444,0.66323 0.90311,1.07245 0.35278,0.40922 0.381,0.43744 0.11289,0.11289 0.18344,0.0847 0.0706,-0.0282 0.0706,-0.16933 v -8.43845 q 0,-0.64911 -0.28222,-1.05833 -0.28223,-0.42333 -0.66323,-0.64911 -0.36688,-0.23989 -0.73377,-0.33867 -0.36689,-0.0988 -0.53623,-0.127 -0.127,-0.0141 -0.19755,-0.0847 -0.0564,-0.0847 -0.0564,-0.15523 0.0141,-0.0847 0.0847,-0.14111 0.0706,-0.0705 0.21167,-0.0705 h 5.36222 z"
         style="font-size:28.22222137px;fill:url(#linearGradient1672);fill-opacity:1;stroke-width:0.26458332"
         id="path902" />
      <path
         inkscape:connector-curvature="0"
         d="m 130.88516,159.52227 q 0.29633,0 0.29633,0.26811 v 3.92289 q 0,0.22577 -0.18344,0.254 -0.18345,0.0141 -0.26812,-0.21167 -0.0564,-0.127 -0.19755,-0.42333 -0.14111,-0.31045 -0.39511,-0.69145 -0.254,-0.381 -0.62089,-0.77611 -0.36689,-0.40922 -0.86078,-0.74789 -0.49389,-0.33866 -1.11478,-0.55033 -0.60677,-0.22578 -1.36877,-0.22578 -0.35278,0 -0.57856,0.11289 -0.22578,0.0988 -0.36689,0.28222 -0.127,0.16934 -0.18344,0.40922 -0.0564,0.23989 -0.0706,0.49389 v 14.30867 q 0,0.66322 0.28222,1.07244 0.28223,0.40923 0.64911,0.64911 0.381,0.23989 0.74789,0.33867 0.36689,0.0847 0.53623,0.11289 0.127,0.0282 0.18344,0.0988 0.0706,0.0705 0.0564,0.15522 0,0.0706 -0.0705,0.14111 -0.0706,0.0565 -0.21167,0.0565 h -9.00289 q -0.14111,0 -0.21166,-0.0565 -0.0706,-0.0705 -0.0847,-0.14111 0,-0.0847 0.0564,-0.15522 0.0705,-0.0706 0.19755,-0.0988 0.16933,-0.0282 0.53622,-0.11289 0.36689,-0.0988 0.73378,-0.33867 0.381,-0.23988 0.66322,-0.64911 0.28223,-0.40922 0.28223,-1.07244 0,-0.11289 0,-0.70556 0,-0.60677 0,-1.50989 0,-0.91722 0,-2.04611 0,-1.12889 0,-2.31422 0.0141,-1.19944 0.0141,-2.35655 0,-1.17123 0,-2.13078 0,-0.97367 0,-1.66511 0,-0.70556 0,-0.94545 0,-0.35277 -0.0282,-0.69144 -0.0141,-0.35278 -0.127,-0.62089 -0.11288,-0.28222 -0.36688,-0.45156 -0.23989,-0.16933 -0.69145,-0.16933 -0.762,0 -1.38289,0.22578 -0.62089,0.21167 -1.11478,0.55033 -0.47977,0.33867 -0.84666,0.74789 -0.36689,0.39511 -0.62089,0.77611 -0.254,0.381 -0.40922,0.69145 -0.14111,0.29633 -0.18345,0.42333 -0.0847,0.22578 -0.26811,0.21167 -0.18344,-0.0282 -0.18344,-0.254 v -3.92289 q 0,-0.26811 0.29633,-0.26811 h 16.48178 z"
         style="font-size:28.22222137px;fill:url(#linearGradient1674);fill-opacity:1;stroke-width:0.26458332"
         id="path904" />
      <path
         inkscape:connector-curvature="0"
         d="m 140.95299,178.12071 q 0.127,0.0282 0.18345,0.0988 0.0705,0.0705 0.0564,0.15522 0,0.0706 -0.0705,0.14111 -0.0706,0.0565 -0.21167,0.0565 h -9.00289 q -0.14111,0 -0.21166,-0.0565 -0.0706,-0.0705 -0.0847,-0.14111 0,-0.0847 0.0564,-0.15522 0.0706,-0.0706 0.19756,-0.0988 0.16933,-0.0282 0.53622,-0.11289 0.36689,-0.0988 0.73378,-0.33867 0.381,-0.23988 0.66322,-0.64911 0.28222,-0.40922 0.28222,-1.07244 v -13.80067 q 0,-0.64911 -0.28222,-1.05833 -0.28222,-0.42333 -0.66322,-0.64911 -0.36689,-0.23989 -0.73378,-0.33867 -0.36689,-0.0988 -0.53622,-0.127 -0.127,-0.0141 -0.19756,-0.0847 -0.0564,-0.0847 -0.0564,-0.15523 0.0141,-0.0847 0.0847,-0.14111 0.0705,-0.0705 0.21166,-0.0705 h 9.00289 q 0.14111,0 0.21167,0.0705 0.0705,0.0565 0.0705,0.14111 0.0141,0.0706 -0.0564,0.15523 -0.0564,0.0705 -0.18345,0.0847 -0.16933,0.0282 -0.53622,0.127 -0.36689,0.0988 -0.74789,0.33867 -0.36689,0.22578 -0.64911,0.64911 -0.28222,0.40922 -0.28222,1.05833 v 13.80067 q 0,0.66322 0.28222,1.07244 0.28222,0.40923 0.64911,0.64911 0.381,0.23989 0.74789,0.33867 0.36689,0.0847 0.53622,0.11289 z"
         style="font-size:28.22222137px;fill:url(#linearGradient1676);fill-opacity:1;stroke-width:0.26458332"
         id="path906" />
      <path
         inkscape:connector-curvature="0"
         d="m 165.95435,177.99018 q 0.14111,0.0353 0.19403,0.12347 0.0529,0.0882 0.0353,0.19403 -0.0176,0.10584 -0.10584,0.19403 -0.0882,0.0706 -0.24694,0.0706 h -11.07722 q -0.12348,0 -0.21167,-0.0706 -0.0706,-0.0706 -0.10583,-0.15875 -0.0176,-0.10583 0.0353,-0.19403 0.0706,-0.0882 0.24695,-0.14111 0.17639,-0.0529 0.61736,-0.19403 0.45861,-0.14111 0.86431,-0.45861 0.42333,-0.33514 0.65263,-0.88194 0.22931,-0.54681 -0.0529,-1.39347 -0.0882,-0.22931 -0.24695,-0.68792 -0.14111,-0.45861 -0.3175,-1.00542 -0.17639,-0.56444 -0.38805,-1.14653 -0.19403,-0.59972 -0.35278,-1.09361 -0.15875,-0.51152 -0.28222,-0.8643 -0.12347,-0.35278 -0.14111,-0.42334 -0.0529,-0.15875 -0.19403,-0.15875 h -7.60236 q -0.15875,0 -0.21167,0.14112 -0.0705,0.21166 -0.2293,0.70555 -0.14112,0.49389 -0.33514,1.11125 -0.19403,0.61736 -0.4057,1.30528 -0.19403,0.67028 -0.37041,1.25236 -0.17639,0.58208 -0.3175,1.02306 -0.12348,0.42333 -0.14112,0.5468 -0.14111,0.65264 0.0529,1.05833 0.21167,0.4057 0.56445,0.65264 0.35277,0.22931 0.75847,0.33514 0.40569,0.10584 0.67028,0.17639 0.15875,0.0353 0.21166,0.14111 0.0529,0.0882 0.0353,0.19403 -0.0176,0.0882 -0.10583,0.15875 -0.0882,0.0706 -0.21167,0.0706 h -6.52639 q -0.14111,0 -0.21167,-0.0706 -0.0882,-0.0706 -0.0882,-0.15875 -0.0176,-0.0882 0.0529,-0.17639 0.0529,-0.10583 0.19402,-0.14111 0.45862,-0.12347 0.89959,-0.29986 0.44097,-0.17639 0.81139,-0.44097 0.38805,-0.28223 0.68791,-0.67028 0.3175,-0.38806 0.52917,-0.91722 0.10583,-0.26459 0.45861,-1.25236 0.35278,-1.00542 0.86431,-2.45181 0.51152,-1.46403 1.12889,-3.22792 0.61736,-1.76389 1.23472,-3.56305 0.635,-1.81681 1.23472,-3.52778 0.59972,-1.72861 1.05833,-3.06917 0.45861,-1.34055 0.74084,-2.16958 0.29986,-0.82903 0.3175,-0.88194 0.0705,-0.19403 0.17639,-0.29987 0.10583,-0.10583 0.33513,-0.14111 0.38806,-0.0705 0.89959,-0.19402 0.51153,-0.12348 1.04069,-0.26459 0.54681,-0.14111 1.07597,-0.29986 0.52917,-0.17639 0.97014,-0.37042 0.29986,-0.14111 0.42334,-0.0706 0.14111,0.0706 0.2293,0.28222 0.0176,0.0529 0.28222,0.88195 0.28223,0.82902 0.7232,2.16958 0.45861,1.32292 1.02305,3.03389 0.56445,1.71097 1.16417,3.52778 0.61736,1.8168 1.21708,3.61597 0.59973,1.79916 1.09362,3.29847 0.51152,1.49931 0.8643,2.59292 0.35278,1.07597 0.49389,1.46402 0.26458,0.75848 0.61736,1.32292 0.37042,0.54681 0.79375,0.9525 0.44097,0.38806 0.91722,0.61736 0.47625,0.22931 0.98778,0.3175 z m -18.39736,-9.66611 q -0.0882,0.22931 0.14111,0.22931 h 6.72042 q 0.21166,0 0.14111,-0.21167 -0.0176,-0.0529 -0.17639,-0.51153 -0.14111,-0.47625 -0.38806,-1.19944 -0.24694,-0.74084 -0.5468,-1.65806 -0.29986,-0.91722 -0.61736,-1.85208 -0.3175,-0.9525 -0.61736,-1.85208 -0.29986,-0.91723 -0.54681,-1.62278 -0.2293,-0.7232 -0.38805,-1.16417 -0.14112,-0.44097 -0.14112,-0.45861 -0.0353,-0.12347 -0.15875,-0.10583 -0.10583,0.0176 -0.14111,0.12347 -0.0176,0.0353 -0.21166,0.65264 -0.19403,0.59972 -0.49389,1.55222 -0.29986,0.93486 -0.67028,2.09903 -0.37042,1.14653 -0.74083,2.27541 -0.35278,1.12889 -0.67028,2.11667 -0.29986,0.98778 -0.49389,1.5875 z"
         style="font-style:normal;font-variant:normal;font-weight:normal;font-stretch:normal;font-size:35.27777863px;font-family:Mermaid;-inkscape-font-specification:Mermaid;fill:url(#linearGradient1678);fill-opacity:1;stroke-width:0.26458332"
         id="path908" />
      <path
         inkscape:connector-curvature="0"
         d="m 181.68218,162.25982 q 0.29634,0.635 0.43745,1.36878 0.14111,0.73378 0.11289,1.48166 -0.0141,0.73378 -0.18345,1.45345 -0.16933,0.70555 -0.508,1.32644 -0.36689,0.67734 -0.97366,1.18534 -0.60678,0.49389 -1.34056,0.83255 -0.73378,0.32456 -1.524,0.47978 -0.79022,0.15522 -1.50989,0.15522 -0.35278,0 -0.762,-0.0141 -0.40922,-0.0141 -0.84667,-0.0705 -0.42333,-0.0565 -0.87489,-0.15523 -0.43744,-0.11289 -0.86077,-0.31044 -0.127,-0.0564 -0.16934,0 -0.0282,0.0423 -0.0282,0.0847 v 5.87022 q 0,0.66322 0.28222,1.07244 0.28223,0.40923 0.64911,0.64911 0.381,0.23989 0.74789,0.33867 0.36689,0.0847 0.53623,0.11289 0.127,0.0282 0.18344,0.0988 0.0706,0.0705 0.0564,0.15522 0,0.0706 -0.0705,0.14111 -0.0706,0.0565 -0.21167,0.0565 h -9.00289 q -0.14111,0 -0.21166,-0.0565 -0.0706,-0.0705 -0.0847,-0.14111 0,-0.0847 0.0564,-0.15522 0.0706,-0.0706 0.19756,-0.0988 0.16933,-0.0282 0.53622,-0.11289 0.36689,-0.0988 0.73378,-0.33867 0.381,-0.23988 0.66322,-0.64911 0.28222,-0.40922 0.28222,-1.07244 v -13.80067 q 0,-0.64911 -0.28222,-1.05833 -0.28222,-0.42334 -0.66322,-0.64911 -0.36689,-0.23989 -0.73378,-0.33867 -0.36689,-0.0988 -0.53622,-0.127 -0.127,-0.0141 -0.19756,-0.0847 -0.0564,-0.0847 -0.0564,-0.15522 0.0141,-0.0847 0.0847,-0.14111 0.0705,-0.0706 0.21166,-0.0706 h 6.82978 2.34245 q 0.80433,0 1.58044,0.0141 0.79022,0.0141 1.524,0.15523 0.74789,0.14111 1.43933,0.46566 0.70556,0.32456 1.35467,0.93134 0.23989,0.23989 0.43745,0.55033 0.21166,0.31044 0.35277,0.62089 z m -7.35189,7.18256 q 0.80434,0 1.35467,-0.31045 0.55033,-0.32455 0.90311,-0.91722 0.35278,-0.59267 0.508,-1.42522 0.15522,-0.84667 0.15522,-1.89089 0,-0.889 -0.0706,-1.70745 -0.0564,-0.81844 -0.31045,-1.43933 -0.23988,-0.62089 -0.73377,-0.98778 -0.49389,-0.381 -1.35467,-0.381 -0.64911,0 -1.05833,0.22578 -0.40923,0.21167 -0.64912,0.57855 -0.23988,0.36689 -0.33866,0.84667 -0.0847,0.46567 -0.0847,0.97367 v 4.65667 q 0,0.93133 0.45156,1.35466 0.46566,0.42334 1.22766,0.42334 z"
         style="font-size:28.22222519px;fill:url(#linearGradient1680);fill-opacity:1;stroke-width:0.26458332"
         id="path910" />
      <path
         inkscape:connector-curvature="0"
         d="m 198.16352,162.25982 q 0.29634,0.635 0.43745,1.36878 0.14111,0.73378 0.11289,1.48166 -0.0141,0.73378 -0.18345,1.45345 -0.16933,0.70555 -0.508,1.32644 -0.36689,0.67734 -0.97367,1.18534 -0.60677,0.49389 -1.34055,0.83255 -0.73378,0.32456 -1.524,0.47978 -0.79022,0.15522 -1.50989,0.15522 -0.35278,0 -0.762,-0.0141 -0.40922,-0.0141 -0.84667,-0.0705 -0.42333,-0.0565 -0.87489,-0.15523 -0.43744,-0.11289 -0.86077,-0.31044 -0.127,-0.0564 -0.16934,0 -0.0282,0.0423 -0.0282,0.0847 v 5.87022 q 0,0.66322 0.28222,1.07244 0.28222,0.40923 0.64911,0.64911 0.381,0.23989 0.74789,0.33867 0.36689,0.0847 0.53622,0.11289 0.127,0.0282 0.18345,0.0988 0.0706,0.0705 0.0564,0.15522 0,0.0706 -0.0705,0.14111 -0.0706,0.0565 -0.21167,0.0565 h -9.00289 q -0.14111,0 -0.21167,-0.0565 -0.0705,-0.0705 -0.0847,-0.14111 0,-0.0847 0.0564,-0.15522 0.0706,-0.0706 0.19756,-0.0988 0.16933,-0.0282 0.53622,-0.11289 0.36689,-0.0988 0.73378,-0.33867 0.381,-0.23988 0.66322,-0.64911 0.28222,-0.40922 0.28222,-1.07244 v -13.80067 q 0,-0.64911 -0.28222,-1.05833 -0.28222,-0.42334 -0.66322,-0.64911 -0.36689,-0.23989 -0.73378,-0.33867 -0.36689,-0.0988 -0.53622,-0.127 -0.127,-0.0141 -0.19756,-0.0847 -0.0564,-0.0847 -0.0564,-0.15522 0.0141,-0.0847 0.0847,-0.14111 0.0706,-0.0706 0.21167,-0.0706 h 6.82978 2.34244 q 0.80434,0 1.58045,0.0141 0.79022,0.0141 1.524,0.15523 0.74789,0.14111 1.43933,0.46566 0.70556,0.32456 1.35467,0.93134 0.23989,0.23989 0.43744,0.55033 0.21167,0.31044 0.35278,0.62089 z m -7.35189,7.18256 q 0.80434,0 1.35467,-0.31045 0.55033,-0.32455 0.90311,-0.91722 0.35278,-0.59267 0.508,-1.42522 0.15522,-0.84667 0.15522,-1.89089 0,-0.889 -0.0705,-1.70745 -0.0565,-0.81844 -0.31045,-1.43933 -0.23989,-0.62089 -0.73378,-0.98778 -0.49388,-0.381 -1.35466,-0.381 -0.64911,0 -1.05834,0.22578 -0.40922,0.21167 -0.64911,0.57855 -0.23989,0.36689 -0.33866,0.84667 -0.0847,0.46567 -0.0847,0.97367 v 4.65667 q 0,0.93133 0.45156,1.35466 0.46566,0.42334 1.22766,0.42334 z"
         style="font-size:28.22222519px;fill:url(#linearGradient1682);fill-opacity:1;stroke-width:0.26458332"
         id="path912" />
    </g>
  </g>
</svg>
