<?xml version="1.0" encoding="UTF-8" standalone="no"?>
<!-- Created with Inkscape (http://www.inkscape.org/) -->

<svg
   xmlns:dc="http://purl.org/dc/elements/1.1/"
   xmlns:cc="http://creativecommons.org/ns#"
   xmlns:rdf="http://www.w3.org/1999/02/22-rdf-syntax-ns#"
   xmlns:svg="http://www.w3.org/2000/svg"
   xmlns="http://www.w3.org/2000/svg"
   xmlns:sodipodi="http://sodipodi.sourceforge.net/DTD/sodipodi-0.dtd"
   xmlns:inkscape="http://www.inkscape.org/namespaces/inkscape"
   width="71.010071mm"
   height="17.82239mm"
   viewBox="0 0 71.010071 17.82239"
   version="1.1"
   id="svg18463"
   inkscape:version="0.92.3 (2405546, 2018-03-11)"
   sodipodi:docname="logo-horizontal.svg">
  <defs
     id="defs18457" />
  <sodipodi:namedview
     id="base"
     pagecolor="#ffffff"
     bordercolor="#666666"
     borderopacity="1.0"
     inkscape:pageopacity="0.0"
     inkscape:pageshadow="2"
     inkscape:zoom="0.90509668"
     inkscape:cx="247.36882"
     inkscape:cy="32.848722"
     inkscape:document-units="mm"
     inkscape:current-layer="layer1"
     showgrid="false"
     inkscape:window-width="1920"
     inkscape:window-height="1017"
     inkscape:window-x="1912"
     inkscape:window-y="-8"
     inkscape:window-maximized="1" />
  <metadata
     id="metadata18460">
    <rdf:RDF>
      <cc:Work
         rdf:about="">
        <dc:format>image/svg+xml</dc:format>
        <dc:type
           rdf:resource="http://purl.org/dc/dcmitype/StillImage" />
        <dc:title></dc:title>
      </cc:Work>
    </rdf:RDF>
  </metadata>
  <g
     inkscape:label="Capa 1"
     inkscape:groupmode="layer"
     id="layer1"
     transform="translate(-43.422996,-175.8356)">
    <path
       inkscape:connector-curvature="0"
       id="path13996"
       style="fill:#0d67a4;fill-opacity:1;fill-rule:nonzero;stroke:none;stroke-width:0.35277778"
       d="m 80.837196,189.60028 c -0.224719,0 -0.412401,-0.0314 -0.563031,-0.0945 -0.150638,-0.0628 -0.262469,-0.13829 -0.335139,-0.22613 -0.0727,-0.0875 -0.10866,-0.16722 -0.10866,-0.23848 0,-0.0272 0.01021,-0.0501 0.0303,-0.0677 0.0208,-0.0176 0.0434,-0.0268 0.0681,-0.0268 h 0.497408 c 0.01659,0 0.0303,0.006 0.0413,0.0162 0.0466,0.0303 0.0723,0.0483 0.078,0.054 0.0519,0.0381 0.100899,0.0677 0.14605,0.0882 0.0452,0.0205 0.0991,0.031 0.16228,0.031 0.0741,0 0.135109,-0.0145 0.182739,-0.0434 0.0483,-0.0289 0.0723,-0.0695 0.0723,-0.121 0,-0.0441 -0.01339,-0.0797 -0.0392,-0.10724 -0.02609,-0.0272 -0.0755,-0.054 -0.14817,-0.0801 -0.0727,-0.0261 -0.182729,-0.0526 -0.330549,-0.0801 -0.47448,-0.0963 -0.711552,-0.31538 -0.711552,-0.65757 0,-0.11289 0.0363,-0.22014 0.109011,-0.32279 0.0727,-0.10302 0.17956,-0.18592 0.32067,-0.24871 0.14111,-0.0631 0.310451,-0.0949 0.507651,-0.0949 0.200379,0 0.373589,0.031 0.519991,0.0928 0.146759,0.0617 0.258238,0.13547 0.335139,0.2219 0.0769,0.0861 0.115009,0.1651 0.115009,0.23636 0,0.0247 -0.009,0.0462 -0.0265,0.0656 -0.01799,0.0194 -0.0392,0.0289 -0.0638,0.0289 h -0.45226 c -0.02469,0 -0.0437,-0.006 -0.0575,-0.0166 -0.0332,-0.0166 -0.0656,-0.0367 -0.0988,-0.0617 -0.0494,-0.0325 -0.0924,-0.0582 -0.129112,-0.0755 -0.0374,-0.018 -0.0847,-0.0272 -0.142168,-0.0272 -0.0684,0 -0.121711,0.0152 -0.16051,0.0451 -0.0381,0.0303 -0.0575,0.0688 -0.0575,0.11536 0,0.0413 0.01159,0.0744 0.0353,0.1009 0.02291,0.0258 0.0713,0.0508 0.143581,0.0755 0.0727,0.0251 0.183089,0.0508 0.331259,0.0783 0.268459,0.0466 0.463902,0.12947 0.585959,0.24871 0.121711,0.11923 0.182743,0.25858 0.182743,0.41733 0,0.20567 -0.0914,0.36936 -0.273402,0.49107 -0.182391,0.12206 -0.437798,0.18309 -0.76694,0.18309 m -2.43981,-0.48507 c 0.12065,0 0.218371,-0.0395 0.293859,-0.11924 0.0755,-0.079 0.112893,-0.19473 0.112893,-0.34501 v -0.0494 l -0.340781,0.0571 c -0.23037,0.0441 -0.345371,0.12594 -0.345371,0.24694 0,0.0628 0.0265,0.11395 0.0801,0.15205 0.0533,0.0385 0.119591,0.0575 0.199321,0.0575 m -0.205671,0.48507 c -0.144989,0 -0.277278,-0.0279 -0.396521,-0.084 -0.11924,-0.0561 -0.212727,-0.1337 -0.27976,-0.23213 -0.067,-0.0991 -0.100539,-0.20708 -0.100539,-0.32491 0,-0.18662 0.0773,-0.33796 0.23213,-0.45437 0.154871,-0.11677 0.367951,-0.19685 0.63959,-0.2406 l 0.50976,-0.0783 v -0.049 c 0,-0.1016 -0.0208,-0.17569 -0.0621,-0.2219 -0.0409,-0.0469 -0.110419,-0.0702 -0.20955,-0.0702 -0.0547,0 -0.100889,0.01 -0.137578,0.0286 -0.037,0.0194 -0.079,0.0483 -0.125593,0.0868 -0.0353,0.03 -0.067,0.0519 -0.0942,0.0656 -0.0113,0.0194 -0.025,0.0286 -0.0416,0.0286 h -0.476596 c -0.0275,0 -0.0501,-0.008 -0.0677,-0.0265 -0.01799,-0.018 -0.0254,-0.0392 -0.02291,-0.0639 0.003,-0.0741 0.0399,-0.15699 0.11113,-0.24871 0.0716,-0.0921 0.17956,-0.17039 0.324549,-0.23636 0.145701,-0.0656 0.324911,-0.0988 0.539051,-0.0988 0.33972,0 0.591609,0.0748 0.756,0.22437 0.16475,0.14922 0.246948,0.35136 0.246948,0.60642 v 1.24566 c 0,0.0272 -0.01,0.0512 -0.0289,0.0716 -0.01871,0.0205 -0.0437,0.031 -0.0737,0.031 h -0.505529 c -0.0275,0 -0.0519,-0.0106 -0.072,-0.031 -0.0208,-0.0205 -0.031,-0.0445 -0.031,-0.0716 v -0.14393 c -0.0603,0.085 -0.143941,0.15416 -0.25083,0.20743 -0.106892,0.0536 -0.234241,0.0801 -0.382411,0.0801 m -4.273187,-0.0409 c -0.0275,0 -0.0519,-0.0106 -0.072,-0.031 -0.0208,-0.0205 -0.031,-0.0445 -0.031,-0.0716 v -1.93252 c 0,-0.0303 0.01021,-0.0547 0.031,-0.0741 0.02011,-0.019 0.0445,-0.0289 0.072,-0.0289 h 0.47661 c 0.03,0 0.055,0.01 0.0741,0.0289 0.019,0.0194 0.0286,0.0437 0.0286,0.0741 v 0.14006 c 0.066,-0.0797 0.15099,-0.14676 0.255061,-0.20179 0.104069,-0.0547 0.22225,-0.0822 0.353489,-0.0822 0.30127,0 0.508349,0.11783 0.620879,0.35348 0.0656,-0.10407 0.157702,-0.18873 0.275521,-0.2547 0.11783,-0.0656 0.243771,-0.0988 0.377831,-0.0988 0.22507,0 0.40781,0.0762 0.549269,0.22825 0.140761,0.15204 0.21132,0.37888 0.21132,0.68051 v 1.16769 c 0,0.0272 -0.009,0.0512 -0.0286,0.0716 -0.0191,0.0205 -0.0441,0.031 -0.0741,0.031 h -0.505529 c -0.03,0 -0.0554,-0.01 -0.0762,-0.0289 -0.0205,-0.019 -0.0307,-0.0437 -0.0307,-0.0737 v -1.13912 c 0,-0.12594 -0.0268,-0.21837 -0.0801,-0.27728 -0.0536,-0.0593 -0.125589,-0.0885 -0.2159,-0.0885 -0.085,0 -0.15417,0.0293 -0.20779,0.0885 -0.0533,0.0589 -0.0801,0.15134 -0.0801,0.27728 v 1.13912 c 0,0.0272 -0.01,0.0512 -0.0286,0.0716 -0.01939,0.0205 -0.0437,0.031 -0.0741,0.031 h -0.505881 c -0.03,0 -0.0554,-0.01 -0.0762,-0.0289 -0.02011,-0.019 -0.0307,-0.0437 -0.0307,-0.0737 v -1.13912 c 0,-0.12594 -0.0275,-0.21837 -0.0822,-0.27728 -0.0547,-0.0593 -0.125939,-0.0885 -0.213429,-0.0885 -0.0854,0 -0.15522,0.0293 -0.209899,0.0885 -0.0547,0.0589 -0.0826,0.14993 -0.0826,0.2734 v 1.143 c 0,0.0272 -0.01,0.0512 -0.0286,0.0716 -0.0191,0.0205 -0.0437,0.031 -0.0741,0.031 z m -1.145109,0 c -0.0303,0 -0.0557,-0.01 -0.0762,-0.0289 -0.0205,-0.019 -0.031,-0.0437 -0.031,-0.0737 v -2.71357 c 0,-0.0303 0.01061,-0.055 0.031,-0.0741 0.0205,-0.019 0.0459,-0.0289 0.0762,-0.0289 h 0.51399 c 0.03,0 0.0547,0.01 0.0737,0.0289 0.019,0.019 0.0289,0.0437 0.0289,0.0741 v 2.71357 c 0,0.0272 -0.01,0.0512 -0.0289,0.0716 -0.0191,0.0205 -0.0437,0.031 -0.0737,0.031 z m -1.650652,-0.44415 c 0.12065,0 0.218372,-0.0395 0.29386,-0.11924 0.0755,-0.079 0.11289,-0.19473 0.11289,-0.34501 v -0.0494 l -0.34113,0.0571 c -0.23037,0.0441 -0.345369,0.12594 -0.345369,0.24694 0,0.0628 0.0265,0.11395 0.0801,0.15205 0.0536,0.0385 0.119938,0.0575 0.19967,0.0575 m -0.205671,0.48507 c -0.145349,0 -0.27764,-0.0279 -0.39688,-0.084 -0.119229,-0.0561 -0.21237,-0.1337 -0.2794,-0.23213 -0.0674,-0.0991 -0.100891,-0.20708 -0.100891,-0.32491 0,-0.18662 0.0773,-0.33796 0.232481,-0.45437 0.15452,-0.11677 0.367951,-0.19685 0.638879,-0.2406 l 0.510122,-0.0783 v -0.049 c 0,-0.1016 -0.0208,-0.17569 -0.0617,-0.2219 -0.0409,-0.0469 -0.11077,-0.0702 -0.209899,-0.0702 -0.0547,0 -0.100542,0.01 -0.137231,0.0286 -0.0374,0.0194 -0.079,0.0483 -0.12559,0.0868 -0.0356,0.03 -0.067,0.0519 -0.0945,0.0656 -0.0113,0.0194 -0.02471,0.0286 -0.0413,0.0286 h -0.476599 c -0.0275,0 -0.0501,-0.008 -0.0681,-0.0265 -0.0176,-0.018 -0.0254,-0.0392 -0.0226,-0.0639 0.003,-0.0741 0.0399,-0.15699 0.110779,-0.24871 0.0716,-0.0921 0.179911,-0.17039 0.3249,-0.23636 0.145349,-0.0656 0.324911,-0.0988 0.5387,-0.0988 0.340071,0 0.59196,0.0748 0.756351,0.22437 0.164748,0.14922 0.246589,0.35136 0.246589,0.60642 v 1.24566 c 0,0.0272 -0.01,0.0512 -0.0289,0.0716 -0.01871,0.0205 -0.0437,0.031 -0.0737,0.031 h -0.505529 c -0.0275,0 -0.0515,-0.0106 -0.072,-0.031 -0.0205,-0.0205 -0.031,-0.0445 -0.031,-0.0716 v -0.14393 c -0.06,0.085 -0.143581,0.15416 -0.25047,0.20743 -0.107241,0.0536 -0.234601,0.0801 -0.382411,0.0801 m -2.10291,-1.6196 c 0.11218,0 0.20073,-0.0296 0.26529,-0.0885 0.0642,-0.0589 0.0963,-0.14605 0.0963,-0.26106 0,-0.10689 -0.0293,-0.19332 -0.0882,-0.25893 -0.0589,-0.066 -0.14993,-0.0988 -0.2734,-0.0988 h -0.46073 v 0.70732 z m -1.14265,1.57868 c -0.0275,0 -0.0519,-0.0106 -0.072,-0.031 -0.0208,-0.0205 -0.031,-0.0445 -0.031,-0.0716 v -2.66841 c 0,-0.0303 0.01,-0.0554 0.0286,-0.0762 0.0191,-0.0205 0.0441,-0.0307 0.0744,-0.0307 h 1.16346 c 0.35596,0 0.63536,0.0808 0.8382,0.24271 0.2032,0.16157 0.30445,0.39864 0.30445,0.7112 0,0.31221 -0.10125,0.5461 -0.30445,0.70097 -0.20284,0.15451 -0.48224,0.23213 -0.8382,0.23213 h -0.46919 v 0.88829 c 0,0.0272 -0.009,0.0512 -0.0289,0.0716 -0.0187,0.0205 -0.0437,0.031 -0.0737,0.031 z m -2.3622,0.0409 c -0.22472,0 -0.41275,-0.0314 -0.56303,-0.0945 -0.15099,-0.0628 -0.26247,-0.13829 -0.33549,-0.22613 -0.0723,-0.0875 -0.10866,-0.16722 -0.10866,-0.23848 0,-0.0272 0.0102,-0.0501 0.0311,-0.0677 0.0201,-0.0176 0.043,-0.0268 0.0674,-0.0268 h 0.49741 c 0.0166,0 0.0303,0.006 0.0416,0.0162 0.0462,0.0303 0.0723,0.0483 0.0776,0.054 0.0526,0.0381 0.1009,0.0677 0.14605,0.0882 0.0452,0.0205 0.0995,0.031 0.16263,0.031 0.0737,0 0.13477,-0.0145 0.18274,-0.0434 0.0483,-0.0289 0.072,-0.0695 0.072,-0.121 0,-0.0441 -0.013,-0.0797 -0.0388,-0.10724 -0.0265,-0.0272 -0.0755,-0.054 -0.14816,-0.0801 -0.0723,-0.0261 -0.18309,-0.0526 -0.33091,-0.0801 -0.47448,-0.0963 -0.7112,-0.31538 -0.7112,-0.65757 0,-0.11289 0.0363,-0.22014 0.10901,-0.32279 0.0723,-0.10302 0.17956,-0.18592 0.32032,-0.24871 0.14147,-0.0631 0.31045,-0.0949 0.508,-0.0949 0.20003,0 0.37324,0.031 0.52,0.0928 0.1464,0.0617 0.25823,0.13547 0.33514,0.2219 0.0766,0.0861 0.115,0.1651 0.115,0.23636 0,0.0247 -0.009,0.0462 -0.0265,0.0656 -0.018,0.0194 -0.0395,0.0289 -0.0639,0.0289 h -0.45226 c -0.0251,0 -0.0438,-0.006 -0.0575,-0.0166 -0.0328,-0.0166 -0.066,-0.0367 -0.0988,-0.0617 -0.0494,-0.0325 -0.0924,-0.0582 -0.12947,-0.0755 -0.037,-0.018 -0.0843,-0.0272 -0.14182,-0.0272 -0.0688,0 -0.12206,0.0152 -0.16016,0.0451 -0.0388,0.0303 -0.0575,0.0688 -0.0575,0.11536 0,0.0413 0.0113,0.0744 0.0346,0.1009 0.0236,0.0258 0.0713,0.0508 0.14393,0.0755 0.0727,0.0251 0.1831,0.0508 0.33091,0.0783 0.26882,0.0466 0.4639,0.12947 0.58596,0.24871 0.12206,0.11923 0.1831,0.25858 0.1831,0.41733 0,0.20567 -0.0914,0.36936 -0.27376,0.49107 -0.18203,0.12206 -0.4378,0.18309 -0.76659,0.18309 m -2.44016,-0.48507 c 0.12065,0 0.21872,-0.0395 0.29386,-0.11924 0.0755,-0.079 0.1136,-0.19473 0.1136,-0.34501 v -0.0494 l -0.34149,0.0571 c -0.23001,0.0441 -0.34537,0.12594 -0.34537,0.24694 0,0.0628 0.0268,0.11395 0.0801,0.15205 0.0533,0.0385 0.11994,0.0575 0.19932,0.0575 m -0.20532,0.48507 c -0.14534,0 -0.27763,-0.0279 -0.39687,-0.084 -0.11924,-0.0561 -0.21237,-0.1337 -0.27975,-0.23213 -0.0667,-0.0991 -0.10055,-0.20708 -0.10055,-0.32491 0,-0.18662 0.0776,-0.33796 0.23213,-0.45437 0.15522,-0.11677 0.36795,-0.19685 0.63959,-0.2406 l 0.50976,-0.0783 v -0.049 c 0,-0.1016 -0.0205,-0.17569 -0.0617,-0.2219 -0.0413,-0.0469 -0.11113,-0.0702 -0.20955,-0.0702 -0.055,0 -0.10055,0.01 -0.13794,0.0286 -0.0367,0.0194 -0.0787,0.0483 -0.12524,0.0868 -0.0356,0.03 -0.067,0.0519 -0.0945,0.0656 -0.0109,0.0194 -0.0247,0.0286 -0.0413,0.0286 h -0.47695 c -0.0272,0 -0.0497,-0.008 -0.0677,-0.0265 -0.0176,-0.018 -0.025,-0.0392 -0.0226,-0.0639 0.003,-0.0741 0.0399,-0.15699 0.11112,-0.24871 0.0713,-0.0921 0.17957,-0.17039 0.32491,-0.23636 0.14499,-0.0656 0.32456,-0.0988 0.53834,-0.0988 0.33972,0 0.59196,0.0748 0.75671,0.22437 0.16404,0.14922 0.24659,0.35136 0.24659,0.60642 v 1.24566 c 0,0.0272 -0.01,0.0512 -0.0289,0.0716 -0.0194,0.0205 -0.0437,0.031 -0.0741,0.031 h -0.50553 c -0.0275,0 -0.0512,-0.0106 -0.072,-0.031 -0.0205,-0.0205 -0.031,-0.0445 -0.031,-0.0716 v -0.14393 c -0.0603,0.085 -0.14358,0.15416 -0.25083,0.20743 -0.10654,0.0536 -0.23424,0.0801 -0.38206,0.0801 m -2.921,-0.0409 c -0.0275,0 -0.0512,-0.0106 -0.072,-0.031 -0.0208,-0.0205 -0.031,-0.0445 -0.031,-0.0716 v -2.67229 c 0,-0.0303 0.0102,-0.055 0.031,-0.0741 0.0208,-0.0194 0.0445,-0.0289 0.072,-0.0289 h 0.57538 c 0.0303,0 0.0547,0.01 0.0741,0.0289 0.0194,0.019 0.0289,0.0437 0.0289,0.0741 v 2.12936 h 1.23332 c 0.03,0 0.0554,0.0102 0.0758,0.031 0.0205,0.0205 0.031,0.0455 0.031,0.0759 v 0.43603 c 0,0.03 -0.0106,0.0547 -0.031,0.0737 -0.0205,0.019 -0.0459,0.0289 -0.0758,0.0289 z m 27.899791,-5.31566 v -0.008 c 0,-0.16158 -0.0402,-0.29069 -0.12101,-0.38841 -0.0808,-0.0974 -0.191201,-0.14605 -0.330901,-0.14605 -0.14006,0 -0.249421,0.0487 -0.329139,0.14605 -0.0794,0.0977 -0.11924,0.22683 -0.11924,0.38841 v 0.008 z m -0.448033,1.29893 c -0.306919,0 -0.549978,-0.0875 -0.729549,-0.26282 -0.179559,-0.17533 -0.274809,-0.42474 -0.28575,-0.74824 l -0.004,-0.10266 c 0,-0.3429 0.09,-0.61277 0.269521,-0.80998 0.17921,-0.19755 0.427921,-0.29633 0.74613,-0.29633 0.326319,0 0.577141,0.0988 0.75424,0.29633 0.176739,0.19721 0.26529,0.46038 0.26529,0.78917 v 0.0861 c 0,0.0275 -0.01,0.0512 -0.0289,0.0702 -0.0191,0.019 -0.0438,0.0289 -0.0741,0.0289 h -1.36489 v 0.0328 c 0.006,0.15346 0.0473,0.28011 0.12559,0.3803 0.078,0.10019 0.18556,0.14993 0.322789,0.14993 0.155932,0 0.283281,-0.0628 0.38241,-0.18909 0.02431,-0.0303 0.0437,-0.0487 0.0575,-0.0554 0.01339,-0.007 0.0367,-0.0102 0.0699,-0.0102 h 0.361598 c 0.02471,0 0.0459,0.007 0.0639,0.0201 0.01799,0.0138 0.0265,0.0332 0.0265,0.0579 0,0.0656 -0.0388,0.14322 -0.11712,0.23248 -0.0776,0.0885 -0.189799,0.16616 -0.334788,0.23213 -0.145341,0.0656 -0.313971,0.0984 -0.505881,0.0984 m -2.45287,-0.44379 c 0.156639,0 0.272349,-0.0501 0.34784,-0.15029 0.0751,-0.0998 0.117131,-0.22366 0.12524,-0.37183 0.0021,-0.0328 0.004,-0.085 0.004,-0.15628 0,-0.0741 -0.0021,-0.12735 -0.004,-0.16051 -0.006,-0.13652 -0.0483,-0.25329 -0.127351,-0.34925 -0.0797,-0.0956 -0.194739,-0.14393 -0.345729,-0.14393 -0.29315,0 -0.449429,0.18097 -0.468479,0.54292 l -0.004,0.12312 0.004,0.12312 c 0.019,0.3623 0.175329,0.54293 0.468479,0.54293 m -0.155914,0.44379 c -0.276929,0 -0.48966,-0.0882 -0.637469,-0.26494 -0.148169,-0.17674 -0.2286,-0.4131 -0.242361,-0.70943 l -0.004,-0.13547 0.004,-0.13547 c 0.0109,-0.29068 0.091,-0.52563 0.240242,-0.7052 0.149579,-0.17956 0.362659,-0.26952 0.639588,-0.26952 0.262821,0 0.47272,0.0907 0.629001,0.27164 v -0.91221 c 0,-0.0303 0.01,-0.0543 0.0286,-0.072 0.01939,-0.018 0.0423,-0.0268 0.0699,-0.0268 h 0.357719 c 0.03,0 0.054,0.009 0.072,0.0268 0.01799,0.0176 0.0268,0.0416 0.0268,0.072 v 2.72168 c 0,0.0272 -0.009,0.0505 -0.0268,0.0699 -0.01799,0.0187 -0.042,0.0286 -0.072,0.0286 h -0.333018 c -0.0272,0 -0.0508,-0.01 -0.0695,-0.0286 -0.01939,-0.0194 -0.0289,-0.0427 -0.0289,-0.0699 v -0.1524 c -0.15063,0.19474 -0.368649,0.29175 -0.65369,0.29175 m -3.258612,-0.44379 c 0.155932,0 0.271639,-0.0501 0.34713,-0.15029 0.0755,-0.0998 0.117121,-0.22366 0.12559,-0.37183 0.0021,-0.0328 0.004,-0.085 0.004,-0.15628 0,-0.0741 -0.0011,-0.12735 -0.004,-0.16051 -0.006,-0.13652 -0.048,-0.25329 -0.127349,-0.34925 -0.0794,-0.0956 -0.195091,-0.14393 -0.345371,-0.14393 -0.293159,0 -0.449789,0.18097 -0.46849,0.54292 l -0.004,0.12312 0.004,0.12312 c 0.01871,0.3623 0.175331,0.54293 0.46849,0.54293 m -0.156639,0.44379 c -0.276572,0 -0.488939,-0.0882 -0.636759,-0.26494 -0.148172,-0.17674 -0.228952,-0.4131 -0.243063,-0.70943 l -0.004,-0.13547 0.004,-0.13547 c 0.0113,-0.29068 0.0914,-0.52563 0.240941,-0.7052 0.14923,-0.17956 0.362309,-0.26952 0.638881,-0.26952 0.263178,0 0.47308,0.0907 0.629359,0.27164 v -0.91264 c 0,-0.0303 0.01,-0.0543 0.0289,-0.072 0.019,-0.018 0.0423,-0.0268 0.0699,-0.0268 h 0.357359 c 0.03,0 0.0543,0.009 0.0723,0.0268 0.0173,0.0176 0.0265,0.0416 0.0265,0.072 v 2.72168 c 0,0.0272 -0.009,0.0505 -0.0265,0.0699 -0.01799,0.0187 -0.0423,0.0286 -0.0723,0.0286 h -0.33302 c -0.0272,0 -0.0504,-0.01 -0.0699,-0.0286 -0.019,-0.0194 -0.0286,-0.0427 -0.0286,-0.0699 v -0.1524 c -0.150979,0.19474 -0.368649,0.29175 -0.65405,0.29175 m -2.337499,-0.39441 c 0.15064,0 0.274111,-0.0494 0.370062,-0.14816 0.096,-0.0984 0.143938,-0.2413 0.143938,-0.42757 v -0.0822 l -0.411339,0.0656 c -0.315029,0.0497 -0.472372,0.15522 -0.472372,0.3168 0,0.0878 0.036,0.15557 0.108652,0.20355 0.0727,0.048 0.159811,0.072 0.261059,0.072 m -0.1397,0.39441 c -0.14005,0 -0.267759,-0.0279 -0.38453,-0.084 -0.116409,-0.0561 -0.20814,-0.13229 -0.275159,-0.22825 -0.0674,-0.096 -0.100901,-0.20143 -0.100901,-0.31644 0,-0.18662 0.0751,-0.33726 0.226131,-0.45226 0.150641,-0.11536 0.35772,-0.19332 0.62089,-0.23425 l 0.563391,-0.0826 v -0.0861 c 0,-0.11783 -0.0303,-0.20708 -0.0907,-0.26741 -0.0603,-0.0603 -0.156279,-0.0907 -0.287859,-0.0907 -0.0903,0 -0.16334,0.0166 -0.218019,0.0494 -0.0547,0.0332 -0.0991,0.0663 -0.133702,0.10089 -0.0339,0.0342 -0.0564,0.0568 -0.0674,0.0681 -0.0109,0.0324 -0.0317,0.049 -0.0621,0.049 h -0.320329 c -0.02471,0 -0.0462,-0.008 -0.0639,-0.0247 -0.01799,-0.0162 -0.0268,-0.0385 -0.0268,-0.0656 0.003,-0.0688 0.0367,-0.14605 0.100539,-0.23248 0.0646,-0.0861 0.164039,-0.16157 0.29845,-0.22613 0.134411,-0.0642 0.30022,-0.0967 0.497419,-0.0967 0.323501,0 0.5588,0.0727 0.70697,0.21802 0.148161,0.14534 0.22225,0.33549 0.22225,0.5715 v 1.29116 c 0,0.0272 -0.009,0.0505 -0.0268,0.0699 -0.01799,0.0187 -0.0416,0.0286 -0.072,0.0286 h -0.341141 c -0.0275,0 -0.0508,-0.01 -0.0699,-0.0286 -0.01939,-0.0194 -0.0289,-0.0427 -0.0289,-0.0699 v -0.16086 c -0.0603,0.0878 -0.145341,0.16016 -0.25505,0.21625 -0.10972,0.0561 -0.24624,0.084 -0.410991,0.084 m -2.148768,-0.44379 c 0.156279,0 0.272341,-0.0501 0.34749,-0.15029 0.0755,-0.0998 0.117121,-0.22366 0.12559,-0.37183 0.003,-0.0328 0.004,-0.085 0.004,-0.15628 0,-0.0741 -0.0011,-0.12735 -0.004,-0.16051 -0.006,-0.13652 -0.048,-0.25329 -0.12736,-0.34925 -0.0797,-0.0956 -0.19473,-0.14393 -0.34572,-0.14393 -0.293161,0 -0.449091,0.18097 -0.46849,0.54292 l -0.004,0.12312 0.004,0.12312 c 0.01939,0.3623 0.175329,0.54293 0.46849,0.54293 m -0.15593,0.44379 c -0.27728,0 -0.489302,-0.0882 -0.637471,-0.26494 -0.147809,-0.17674 -0.2286,-0.4131 -0.242358,-0.70943 l -0.004,-0.13547 0.004,-0.13547 c 0.0109,-0.29068 0.091,-0.52563 0.240249,-0.7052 0.149569,-0.17956 0.3623,-0.26952 0.63958,-0.26952 0.263171,0 0.472369,0.0907 0.62901,0.27164 v -0.9125 c 0,-0.0303 0.01,-0.0543 0.0286,-0.072 0.01939,-0.018 0.0423,-0.0268 0.0699,-0.0268 h 0.35772 c 0.0303,0 0.054,0.009 0.072,0.0268 0.01799,0.0176 0.0268,0.0416 0.0268,0.072 v 2.72168 c 0,0.0272 -0.009,0.0505 -0.0268,0.0699 -0.01799,0.0187 -0.0416,0.0286 -0.072,0.0286 h -0.333029 c -0.0275,0 -0.0504,-0.01 -0.0698,-0.0286 -0.0191,-0.0194 -0.0286,-0.0427 -0.0286,-0.0699 v -0.1524 c -0.15099,0.19474 -0.368649,0.29175 -0.653698,0.29175 m -1.737432,-0.0409 c -0.0275,0 -0.0512,-0.01 -0.0699,-0.0286 -0.01939,-0.0194 -0.0289,-0.0427 -0.0289,-0.0699 v -1.94063 c 0,-0.03 0.01,-0.0543 0.0289,-0.0723 0.01871,-0.0173 0.0423,-0.0265 0.0699,-0.0265 h 0.34925 c 0.0275,0 0.0508,0.01 0.0699,0.0286 0.01939,0.0194 0.0289,0.0427 0.0289,0.0702 v 1.94063 c 0,0.0272 -0.01,0.0505 -0.0289,0.0699 -0.019,0.0187 -0.0423,0.0286 -0.0699,0.0286 z m -0.01659,-2.48744 c -0.0272,0 -0.0508,-0.009 -0.0699,-0.0286 -0.01939,-0.0194 -0.0286,-0.0427 -0.0286,-0.0698 v -0.30022 c 0,-0.0303 0.009,-0.0547 0.0286,-0.0741 0.019,-0.019 0.0427,-0.0289 0.0699,-0.0289 h 0.37818 c 0.0303,0 0.055,0.01 0.0741,0.0289 0.019,0.0194 0.0286,0.0437 0.0286,0.0741 v 0.30022 c 0,0.0272 -0.01021,0.0504 -0.0307,0.0698 -0.02051,0.0194 -0.0445,0.0286 -0.072,0.0286 z m -1.41287,2.52836 c -0.208139,0 -0.382061,-0.0314 -0.521761,-0.0945 -0.140049,-0.0628 -0.243419,-0.13618 -0.310449,-0.21978 -0.0674,-0.0836 -0.100539,-0.15558 -0.100539,-0.2159 0,-0.0272 0.009,-0.0494 0.0265,-0.0656 0.01799,-0.0162 0.0392,-0.0251 0.0635,-0.0251 h 0.337262 c 0.02191,0 0.0413,0.0113 0.0579,0.0332 0.01381,0.0109 0.0444,0.037 0.0921,0.0783 0.0483,0.0409 0.103008,0.0734 0.164738,0.0963 0.0614,0.0236 0.129471,0.0353 0.2032,0.0353 0.110072,0 0.198972,-0.0215 0.267412,-0.0639 0.0684,-0.0427 0.102658,-0.10371 0.102658,-0.18274 0,-0.0554 -0.01551,-0.0998 -0.0473,-0.1337 -0.0314,-0.0346 -0.0875,-0.066 -0.16828,-0.0949 -0.0811,-0.0286 -0.202139,-0.061 -0.364069,-0.0963 -0.23318,-0.0494 -0.40499,-0.12489 -0.51576,-0.22614 -0.11112,-0.1016 -0.166511,-0.236 -0.166511,-0.40322 0,-0.10936 0.0332,-0.21308 0.0984,-0.31009 0.066,-0.0974 0.164039,-0.17674 0.294208,-0.23848 0.129831,-0.0617 0.28575,-0.0928 0.466381,-0.0928 0.186611,0 0.346779,0.0296 0.48118,0.0885 0.134411,0.0589 0.23637,0.12947 0.30622,0.21202 0.0699,0.0818 0.105119,0.15451 0.105119,0.21766 0,0.0247 -0.009,0.0459 -0.0268,0.0635 -0.01799,0.018 -0.0392,0.0268 -0.0639,0.0268 h -0.308329 c -0.0303,0 -0.0533,-0.0109 -0.0699,-0.0328 -0.0191,-0.0138 -0.0501,-0.0388 -0.0924,-0.0762 -0.0427,-0.0367 -0.0899,-0.0663 -0.141809,-0.0882 -0.0522,-0.0219 -0.115361,-0.0332 -0.189441,-0.0332 -0.101249,0 -0.179219,0.0222 -0.234249,0.066 -0.055,0.0441 -0.0822,0.1016 -0.0822,0.17286 0,0.0494 0.0131,0.0903 0.0388,0.12312 0.0265,0.0328 0.079,0.0635 0.15875,0.0924 0.0794,0.0289 0.19861,0.0582 0.35736,0.0885 0.49354,0.096 0.740129,0.31115 0.740129,0.64559 0,0.19438 -0.084,0.35207 -0.252939,0.47272 -0.16828,0.12065 -0.40323,0.18062 -0.705202,0.18062 m -2.39078,-0.0409 c -0.0275,0 -0.0508,-0.01 -0.0699,-0.0286 -0.01939,-0.0194 -0.0293,-0.0427 -0.0293,-0.0699 v -1.93675 c 0,-0.0303 0.01,-0.0547 0.0293,-0.0741 0.019,-0.0187 0.0423,-0.0286 0.0699,-0.0286 h 0.337262 c 0.03,0 0.0547,0.01 0.0737,0.0286 0.019,0.0194 0.0289,0.0437 0.0289,0.0741 v 0.16863 c 0.136869,-0.18097 0.334079,-0.27129 0.59196,-0.27129 h 0.1725 c 0.0303,0 0.0543,0.009 0.072,0.0265 0.01799,0.018 0.0268,0.0423 0.0268,0.0723 v 0.29986 c 0,0.0275 -0.009,0.0512 -0.0268,0.0698 -0.0176,0.0194 -0.0416,0.0289 -0.072,0.0289 h -0.324551 c -0.128759,0 -0.230359,0.037 -0.304099,0.11113 -0.0741,0.0741 -0.111471,0.17533 -0.111471,0.30409 v 1.12677 c 0,0.0272 -0.009,0.0505 -0.0286,0.0699 -0.01939,0.0187 -0.0423,0.0286 -0.0699,0.0286 z m -1.0548,-1.25801 v -0.008 c 0,-0.16158 -0.0409,-0.29069 -0.12136,-0.38841 -0.0811,-0.0974 -0.19121,-0.14605 -0.33126,-0.14605 -0.1397,0 -0.24941,0.0487 -0.32879,0.14605 -0.0794,0.0977 -0.11924,0.22683 -0.11924,0.38841 v 0.008 z m -0.44838,1.29893 c -0.30692,0 -0.55034,-0.0875 -0.72955,-0.26282 -0.17956,-0.17533 -0.27517,-0.42474 -0.28575,-0.74824 l -0.004,-0.10266 c 0,-0.3429 0.0896,-0.61277 0.26917,-0.80998 0.17956,-0.19755 0.42827,-0.29633 0.74612,-0.29633 0.32632,0 0.57785,0.0988 0.75459,0.29633 0.176749,0.19721 0.265289,0.46038 0.265289,0.78917 v 0.0861 c 0,0.0275 -0.01,0.0512 -0.0289,0.0702 -0.019,0.019 -0.0437,0.0289 -0.0741,0.0289 h -1.3649 v 0.0328 c 0.005,0.15346 0.0476,0.28011 0.12524,0.3803 0.0783,0.10019 0.18591,0.14993 0.322789,0.14993 0.156281,0 0.283641,-0.0628 0.382411,-0.18909 0.0247,-0.0303 0.0438,-0.0487 0.0575,-0.0554 0.0137,-0.007 0.0374,-0.0102 0.0702,-0.0102 h 0.361601 c 0.02471,0 0.0459,0.007 0.0638,0.0201 0.01759,0.0138 0.0268,0.0332 0.0268,0.0579 0,0.0656 -0.0395,0.14322 -0.11748,0.23248 -0.078,0.0885 -0.189788,0.16616 -0.334779,0.23213 -0.1457,0.0656 -0.31397,0.0984 -0.50588,0.0984 m -2.48568,-0.0409 c -0.0409,0 -0.0727,-0.009 -0.0945,-0.0265 -0.0219,-0.018 -0.0399,-0.0434 -0.0536,-0.0762 l -0.77259,-1.90747 c -0.003,-0.008 -0.004,-0.0208 -0.004,-0.0374 0,-0.0244 0.009,-0.0459 0.0265,-0.0639 0.018,-0.0173 0.0381,-0.0265 0.0596,-0.0265 h 0.34149 c 0.0547,0 0.0921,0.0261 0.11077,0.078 l 0.54257,1.43475 0.54328,-1.43475 c 0.005,-0.019 0.0166,-0.037 0.0346,-0.0529 0.018,-0.0166 0.0416,-0.025 0.072,-0.025 h 0.34113 c 0.0247,0 0.0455,0.009 0.0617,0.0265 0.0166,0.018 0.0247,0.0395 0.0247,0.0639 0,0.0166 -0.001,0.0289 -0.004,0.0374 l -0.76835,1.90747 c -0.0303,0.0684 -0.0797,0.10266 -0.14817,0.10266 z m -1.70039,0 c -0.0272,0 -0.0508,-0.01 -0.0699,-0.0286 -0.0191,-0.0194 -0.0289,-0.0427 -0.0289,-0.0699 v -1.94063 c 0,-0.03 0.01,-0.0543 0.0289,-0.0723 0.019,-0.0173 0.0427,-0.0265 0.0699,-0.0265 h 0.34925 c 0.0275,0 0.0512,0.01 0.0699,0.0286 0.0194,0.0194 0.0289,0.0427 0.0289,0.0702 v 1.94063 c 0,0.0272 -0.01,0.0505 -0.0289,0.0699 -0.0187,0.0187 -0.0423,0.0286 -0.0699,0.0286 z m -0.0166,-2.48744 c -0.0272,0 -0.0508,-0.009 -0.0695,-0.0286 -0.0194,-0.0194 -0.0289,-0.0427 -0.0289,-0.0698 v -0.30022 c 0,-0.0303 0.01,-0.0547 0.0289,-0.0741 0.0187,-0.019 0.0423,-0.0289 0.0695,-0.0289 h 0.37818 c 0.0303,0 0.0547,0.01 0.0741,0.0289 0.0194,0.0194 0.0289,0.0437 0.0289,0.0741 v 0.30022 c 0,0.0272 -0.0102,0.0504 -0.031,0.0698 -0.0205,0.0194 -0.0445,0.0286 -0.072,0.0286 z m -2.506131,2.48744 c -0.0275,0 -0.0508,-0.01 -0.0699,-0.0286 -0.0194,-0.0194 -0.0289,-0.0427 -0.0289,-0.0699 v -1.94063 c 0,-0.03 0.01,-0.0543 0.0289,-0.0723 0.0191,-0.0173 0.0423,-0.0265 0.0699,-0.0265 h 0.34114 c 0.03,0 0.0543,0.009 0.072,0.0265 0.018,0.018 0.0268,0.0423 0.0268,0.0723 v 0.16828 c 0.167219,-0.20532 0.39617,-0.30833 0.68651,-0.30833 0.252239,0 0.452259,0.0822 0.60043,0.24694 0.14781,0.1644 0.221889,0.39053 0.221889,0.67804 v 1.1557 c 0,0.0272 -0.009,0.0505 -0.0265,0.0699 -0.018,0.0187 -0.0423,0.0286 -0.072,0.0286 h -0.37006 c -0.0275,0 -0.0512,-0.01 -0.0702,-0.0286 -0.019,-0.0194 -0.0289,-0.0427 -0.0289,-0.0699 v -1.131 c 0,-0.15875 -0.0388,-0.28258 -0.11713,-0.37183 -0.078,-0.0889 -0.18979,-0.1337 -0.33514,-0.1337 -0.139341,0 -0.25223,0.0452 -0.3369,0.13582 -0.085,0.0903 -0.12735,0.21378 -0.12735,0.36971 v 1.131 c 0,0.0272 -0.009,0.0505 -0.0268,0.0699 -0.0176,0.0187 -0.042,0.0286 -0.0716,0.0286 z m -1.786819,0.0409 c -0.37289,0 -0.66181,-0.0945 -0.867481,-0.28363 -0.20567,-0.18909 -0.30833,-0.47519 -0.30833,-0.85902 v -1.67322 c 0,-0.03 0.009,-0.055 0.0268,-0.0741 0.0176,-0.019 0.0416,-0.0286 0.0716,-0.0286 h 0.37853 c 0.03,0 0.0547,0.01 0.0737,0.0286 0.0194,0.019 0.0293,0.0441 0.0293,0.0741 v 1.67322 c 0,0.21626 0.0512,0.37959 0.15381,0.48931 0.102659,0.10936 0.248709,0.16404 0.437799,0.16404 0.18909,0 0.33514,-0.0547 0.437791,-0.16404 0.10266,-0.10972 0.154169,-0.27305 0.154169,-0.48931 v -1.67322 c 0,-0.03 0.01,-0.055 0.0289,-0.0741 0.0194,-0.019 0.0437,-0.0286 0.0741,-0.0286 h 0.37818 c 0.03,0 0.0543,0.01 0.072,0.0286 0.0176,0.019 0.0268,0.0441 0.0268,0.0741 v 1.67322 c 0,0.38383 -0.102311,0.66993 -0.30657,0.85902 -0.203901,0.18909 -0.491071,0.28363 -0.861131,0.28363 m 23.61883,7.63023 c 0.12065,0 0.218721,-0.0395 0.294212,-0.11924 0.0751,-0.0797 0.11289,-0.19473 0.11289,-0.34502 v -0.0494 l -0.341141,0.0572 c -0.230359,0.0441 -0.345361,0.12594 -0.345361,0.24694 0,0.0628 0.02641,0.11359 0.0804,0.15205 0.0533,0.0381 0.119589,0.0575 0.198969,0.0575 m -0.205319,0.48507 c -0.145351,0 -0.277641,-0.0282 -0.39688,-0.084 -0.11924,-0.0565 -0.212371,-0.1337 -0.2794,-0.23283 -0.067,-0.0984 -0.100891,-0.20638 -0.100891,-0.32456 0,-0.18627 0.0776,-0.33761 0.232481,-0.45438 0.154869,-0.11641 0.367948,-0.1965 0.639228,-0.24024 l 0.50977,-0.0783 v -0.049 c 0,-0.10196 -0.0208,-0.17569 -0.0617,-0.22225 -0.0413,-0.0466 -0.11077,-0.0699 -0.209902,-0.0699 -0.0547,0 -0.100539,0.01 -0.137588,0.0286 -0.037,0.0194 -0.0787,0.048 -0.12523,0.0868 -0.0356,0.0296 -0.067,0.0519 -0.0945,0.0653 -0.0109,0.0194 -0.025,0.0289 -0.0409,0.0289 h -0.477311 c -0.0272,0 -0.0501,-0.009 -0.0677,-0.0268 -0.0176,-0.0176 -0.0254,-0.0388 -0.0226,-0.0635 0.003,-0.0741 0.0395,-0.15699 0.11113,-0.24871 0.0713,-0.0921 0.17921,-0.17039 0.324911,-0.23672 0.144989,-0.0656 0.324549,-0.0984 0.538329,-0.0984 0.339731,0 0.591971,0.0748 0.756359,0.22401 0.164391,0.14958 0.246941,0.35172 0.246941,0.60643 v 1.24601 c 0,0.0272 -0.01,0.0511 -0.0289,0.0716 -0.019,0.0205 -0.0438,0.031 -0.0737,0.031 h -0.505888 c -0.0275,0 -0.0512,-0.0106 -0.072,-0.031 -0.0208,-0.0205 -0.0311,-0.0444 -0.0311,-0.0716 v -0.14393 c -0.0603,0.0847 -0.143581,0.15381 -0.250819,0.20708 -0.106892,0.0536 -0.234252,0.0804 -0.382061,0.0804 m -1.691921,-0.0409 c -0.0275,0 -0.0512,-0.0106 -0.072,-0.031 -0.0205,-0.0205 -0.0307,-0.0444 -0.0307,-0.0716 v -1.93252 c 0,-0.0303 0.01021,-0.0547 0.0307,-0.0741 0.0208,-0.019 0.0445,-0.0289 0.072,-0.0289 h 0.51399 c 0.03,0 0.0554,0.01 0.0762,0.0289 0.02051,0.0194 0.0307,0.0437 0.0307,0.0741 v 1.93252 c 0,0.03 -0.01021,0.0547 -0.0307,0.0737 -0.0208,0.0191 -0.0462,0.0289 -0.0762,0.0289 z m 0,-2.43417 c -0.0303,0 -0.0547,-0.0102 -0.0741,-0.031 -0.019,-0.0201 -0.0286,-0.0455 -0.0286,-0.0755 v -0.38241 c 0,-0.0303 0.01021,-0.0557 0.0307,-0.0762 0.0208,-0.0208 0.0445,-0.0307 0.072,-0.0307 h 0.51399 c 0.03,0 0.0554,0.01 0.0762,0.0307 0.02051,0.0205 0.0307,0.0459 0.0307,0.0762 v 0.38241 c 0,0.03 -0.01021,0.0554 -0.0307,0.0755 -0.0208,0.0208 -0.0462,0.031 -0.0762,0.031 z m -1.852088,2.43417 c -0.0275,0 -0.0512,-0.0106 -0.072,-0.031 -0.02051,-0.0205 -0.0311,-0.0444 -0.0311,-0.0716 v -1.92828 c 0,-0.0303 0.01,-0.0554 0.0289,-0.0762 0.01939,-0.0208 0.0437,-0.0311 0.0741,-0.0311 h 0.50165 c 0.03,0 0.0554,0.0102 0.0759,0.0311 0.0208,0.0208 0.031,0.0459 0.031,0.0762 v 0.15592 c 0.0769,-0.085 0.166161,-0.14993 0.269171,-0.19508 0.103018,-0.0452 0.217318,-0.0681 0.34326,-0.0681 h 0.185208 c 0.0303,0 0.0547,0.01 0.0741,0.0289 0.0191,0.0194 0.0286,0.0437 0.0286,0.0741 v 0.44803 c 0,0.0275 -0.01,0.0515 -0.0286,0.072 -0.01939,0.0205 -0.0437,0.031 -0.0741,0.031 H 81.69353 c -0.110071,0 -0.194032,0.03 -0.252949,0.0903 -0.0589,0.06 -0.0885,0.14535 -0.0885,0.25471 v 1.03646 c 0,0.03 -0.01,0.0547 -0.0307,0.0737 -0.0205,0.0191 -0.0459,0.0289 -0.0762,0.0289 z m -1.646762,-0.44415 c 0.12065,0 0.218721,-0.0395 0.294212,-0.11924 0.0755,-0.0797 0.113249,-0.19473 0.113249,-0.34502 v -0.0494 l -0.34149,0.0572 c -0.23037,0.0441 -0.345371,0.12594 -0.345371,0.24694 0,0.0628 0.0268,0.11359 0.0804,0.15205 0.0533,0.0381 0.119938,0.0575 0.198969,0.0575 m -0.205319,0.48507 c -0.145341,0 -0.277641,-0.0282 -0.396873,-0.084 -0.119239,-0.0565 -0.212018,-0.1337 -0.2794,-0.23283 -0.067,-0.0984 -0.100898,-0.20638 -0.100898,-0.32456 0,-0.18627 0.0776,-0.33761 0.232478,-0.45438 0.154872,-0.11641 0.367951,-0.1965 0.639231,-0.24024 l 0.50977,-0.0783 v -0.049 c 0,-0.10196 -0.0205,-0.17569 -0.0617,-0.22225 -0.0413,-0.0466 -0.110768,-0.0699 -0.20955,-0.0699 -0.055,0 -0.100888,0.01 -0.137578,0.0286 -0.0374,0.0194 -0.079,0.048 -0.12559,0.0868 -0.0356,0.0296 -0.067,0.0519 -0.0945,0.0653 -0.01061,0.0194 -0.02471,0.0289 -0.0409,0.0289 h -0.476951 c -0.0275,0 -0.0501,-0.009 -0.0677,-0.0268 -0.01799,-0.0176 -0.0258,-0.0388 -0.02291,-0.0635 0.003,-0.0741 0.0399,-0.15699 0.11113,-0.24871 0.0713,-0.0921 0.17956,-0.17039 0.324909,-0.23672 0.145341,-0.0656 0.324911,-0.0984 0.538339,-0.0984 0.340072,0 0.592312,0.0748 0.756701,0.22401 0.164049,0.14958 0.246599,0.35172 0.246599,0.60643 v 1.24601 c 0,0.0272 -0.01,0.0511 -0.0286,0.0716 -0.01939,0.0205 -0.0441,0.031 -0.0741,0.031 h -0.505891 c -0.0275,0 -0.0511,-0.0106 -0.072,-0.031 -0.0208,-0.0205 -0.0307,-0.0444 -0.0307,-0.0716 v -0.14393 c -0.0603,0.0847 -0.143938,0.15381 -0.25083,0.20708 -0.106889,0.0536 -0.234598,0.0804 -0.382407,0.0804 m -3.155241,-0.0409 c -0.0275,0 -0.0515,-0.0106 -0.072,-0.031 -0.02051,-0.0205 -0.031,-0.0444 -0.031,-0.0716 v -1.93252 c 0,-0.0303 0.01061,-0.0547 0.031,-0.0741 0.0205,-0.019 0.0445,-0.0289 0.072,-0.0289 h 0.505528 c 0.03,0 0.055,0.01 0.0737,0.0289 0.01939,0.0194 0.0289,0.0437 0.0289,0.0741 v 0.15628 c 0.0741,-0.0903 0.169341,-0.16298 0.28575,-0.21801 0.116421,-0.055 0.250481,-0.0822 0.401111,-0.0822 0.155929,0 0.29528,0.0356 0.416988,0.10689 0.12206,0.0713 0.218371,0.1771 0.288221,0.31644 0.0695,0.14006 0.10477,0.30833 0.10477,0.50589 v 1.14723 c 0,0.0272 -0.01,0.0511 -0.0289,0.0716 -0.019,0.0205 -0.0437,0.031 -0.0737,0.031 h -0.547148 c -0.03,0 -0.0554,-0.01 -0.0762,-0.0289 -0.02051,-0.019 -0.0307,-0.0437 -0.0307,-0.0737 v -1.12254 c 0,-0.12347 -0.0293,-0.21802 -0.0885,-0.28399 -0.0589,-0.0656 -0.144291,-0.0984 -0.256472,-0.0984 -0.10972,0 -0.196149,0.0335 -0.259299,0.10054 -0.0628,0.0674 -0.0945,0.16122 -0.0945,0.28187 v 1.12254 c 0,0.0272 -0.01,0.0511 -0.0286,0.0716 -0.01939,0.0205 -0.0437,0.031 -0.0741,0.031 z m -1.64677,-0.44415 c 0.12065,0 0.218718,-0.0395 0.29422,-0.11924 0.0751,-0.0797 0.112879,-0.19473 0.112879,-0.34502 v -0.0494 l -0.341479,0.0572 c -0.230021,0.0441 -0.34502,0.12594 -0.34502,0.24694 0,0.0628 0.0265,0.11359 0.0801,0.15205 0.0536,0.0381 0.119939,0.0575 0.199319,0.0575 m -0.205319,0.48507 c -0.145341,0 -0.27763,-0.0282 -0.39687,-0.084 -0.11924,-0.0565 -0.212371,-0.1337 -0.2794,-0.23283 -0.0674,-0.0984 -0.100902,-0.20638 -0.100902,-0.32456 0,-0.18627 0.0773,-0.33761 0.232482,-0.45438 0.154519,-0.11641 0.367599,-0.1965 0.638879,-0.24024 l 0.510121,-0.0783 v -0.049 c 0,-0.10196 -0.0208,-0.17569 -0.0617,-0.22225 -0.0409,-0.0466 -0.110771,-0.0699 -0.2099,-0.0699 -0.0547,0 -0.100541,0.01 -0.137231,0.0286 -0.0374,0.0194 -0.079,0.048 -0.12559,0.0868 -0.0356,0.0296 -0.067,0.0519 -0.0945,0.0653 -0.0113,0.0194 -0.02471,0.0289 -0.0413,0.0289 h -0.476599 c -0.0275,0 -0.0504,-0.009 -0.0681,-0.0268 -0.0176,-0.0176 -0.0254,-0.0388 -0.0226,-0.0635 0.003,-0.0741 0.0399,-0.15699 0.110771,-0.24871 0.0716,-0.0921 0.179922,-0.17039 0.324911,-0.23672 0.144989,-0.0656 0.324911,-0.0984 0.538689,-0.0984 0.340079,0 0.591611,0.0748 0.756351,0.22401 0.164399,0.14958 0.2466,0.35172 0.2466,0.60643 v 1.24601 c 0,0.0272 -0.01,0.0511 -0.0289,0.0716 -0.01871,0.0205 -0.0437,0.031 -0.0737,0.031 H 74.5793 c -0.0275,0 -0.0515,-0.0106 -0.072,-0.031 -0.02051,-0.0205 -0.031,-0.0444 -0.031,-0.0716 v -0.14393 c -0.06,0.0847 -0.143578,0.15381 -0.250827,0.20708 -0.106892,0.0536 -0.234241,0.0804 -0.382061,0.0804 m -2.267651,0 c -0.391589,0 -0.699209,-0.0945 -0.92287,-0.28363 -0.223311,-0.18909 -0.341839,-0.46602 -0.3556,-0.83044 -0.003,-0.0741 -0.004,-0.19474 -0.004,-0.36195 0,-0.16969 0.0011,-0.29316 0.004,-0.36971 0.01381,-0.35631 0.1337,-0.63148 0.359831,-0.82445 0.22578,-0.19332 0.53235,-0.28998 0.918639,-0.28998 0.24412,0 0.462841,0.0399 0.656161,0.11924 0.192969,0.0797 0.345728,0.19473 0.457909,0.34572 0.11289,0.15029 0.171799,0.32844 0.176742,0.53411 0,0.0251 -0.008,0.0451 -0.0265,0.0617 -0.01799,0.0162 -0.0392,0.0243 -0.0639,0.0243 h -0.583491 c -0.0385,0 -0.0667,-0.007 -0.0843,-0.0222 -0.01799,-0.0152 -0.0339,-0.043 -0.0473,-0.0843 -0.0385,-0.13441 -0.0967,-0.22825 -0.17498,-0.28152 -0.078,-0.0533 -0.181679,-0.0804 -0.310438,-0.0804 -0.309743,0 -0.4699,0.17286 -0.480841,0.51787 -0.003,0.0744 -0.004,0.18804 -0.004,0.34149 0,0.15346 0.0011,0.27023 0.004,0.34925 0.0109,0.34573 0.171098,0.51823 0.480841,0.51823 0.126288,0 0.230007,-0.0272 0.310438,-0.0822 0.0811,-0.055 0.139351,-0.14782 0.17498,-0.2794 0.0109,-0.0413 0.02569,-0.0695 0.0451,-0.0847 0.0191,-0.0152 0.048,-0.0222 0.0864,-0.0222 h 0.583491 c 0.02471,0 0.0459,0.008 0.0639,0.0243 0.01799,0.0166 0.0265,0.0374 0.0265,0.0621 -0.005,0.20531 -0.0639,0.38347 -0.176741,0.53445 -0.112179,0.15029 -0.264938,0.26529 -0.45791,0.34502 -0.19332,0.0797 -0.41204,0.11924 -0.656158,0.11924 m -4.610468,-0.0409 c -0.0275,0 -0.0515,-0.0106 -0.072,-0.031 -0.0205,-0.0205 -0.031,-0.0444 -0.031,-0.0716 v -1.93252 c 0,-0.0303 0.0106,-0.0547 0.031,-0.0741 0.0205,-0.019 0.0445,-0.0289 0.072,-0.0289 h 0.50553 c 0.03,0 0.055,0.01 0.0737,0.0289 0.0194,0.0194 0.0289,0.0437 0.0289,0.0741 v 0.15628 c 0.0741,-0.0903 0.16934,-0.16298 0.28611,-0.21801 0.11641,-0.055 0.25012,-0.0822 0.40075,-0.0822 0.15593,0 0.29528,0.0356 0.41698,0.10689 0.12207,0.0713 0.21802,0.1771 0.28822,0.31644 0.0695,0.14006 0.10478,0.30833 0.10478,0.50589 v 1.14723 c 0,0.0272 -0.01,0.0511 -0.0289,0.0716 -0.0191,0.0205 -0.0437,0.031 -0.0741,0.031 h -0.54681 c -0.03,0 -0.055,-0.01 -0.0758,-0.0289 -0.0208,-0.019 -0.0311,-0.0437 -0.0311,-0.0737 v -1.12254 c 0,-0.12347 -0.0293,-0.21802 -0.0885,-0.28399 -0.0589,-0.0656 -0.14428,-0.0984 -0.25647,-0.0984 -0.10971,0 -0.19614,0.0335 -0.25929,0.10054 -0.0631,0.0674 -0.0945,0.16122 -0.0945,0.28187 v 1.12254 c 0,0.0272 -0.01,0.0511 -0.0286,0.0716 -0.0194,0.0205 -0.0437,0.031 -0.0741,0.031 z m -1.64641,-0.44415 c 0.12065,0 0.21837,-0.0395 0.29386,-0.11924 0.0752,-0.0797 0.11289,-0.19473 0.11289,-0.34502 v -0.0494 l -0.34113,0.0572 c -0.23037,0.0441 -0.34537,0.12594 -0.34537,0.24694 0,0.0628 0.0265,0.11359 0.0801,0.15205 0.0536,0.0381 0.11994,0.0575 0.19967,0.0575 m -0.20567,0.48507 c -0.14534,0 -0.27764,-0.0282 -0.39687,-0.084 -0.11924,-0.0565 -0.21238,-0.1337 -0.2794,-0.23283 -0.0674,-0.0984 -0.1009,-0.20638 -0.1009,-0.32456 0,-0.18627 0.0773,-0.33761 0.23248,-0.45438 0.15452,-0.11641 0.36795,-0.1965 0.63888,-0.24024 l 0.51012,-0.0783 v -0.049 c 0,-0.10196 -0.0208,-0.17569 -0.0617,-0.22225 -0.0409,-0.0466 -0.11112,-0.0699 -0.2099,-0.0699 -0.0547,0 -0.10054,0.01 -0.13723,0.0286 -0.0374,0.0194 -0.079,0.048 -0.12559,0.0868 -0.036,0.0296 -0.067,0.0519 -0.0949,0.0653 -0.0109,0.0194 -0.0243,0.0289 -0.0409,0.0289 h -0.4766 c -0.0275,0 -0.0501,-0.009 -0.0681,-0.0268 -0.0176,-0.0176 -0.0254,-0.0388 -0.0226,-0.0635 0.003,-0.0741 0.0399,-0.15699 0.11078,-0.24871 0.0713,-0.0921 0.17991,-0.17039 0.32491,-0.23672 0.14534,-0.0656 0.3249,-0.0984 0.53869,-0.0984 0.33972,0 0.59196,0.0748 0.75635,0.22401 0.1644,0.14958 0.246591,0.35172 0.246591,0.60643 v 1.24601 c 0,0.0272 -0.01,0.0511 -0.0289,0.0716 -0.0187,0.0205 -0.0438,0.031 -0.0737,0.031 h -0.505531 c -0.0275,0 -0.0515,-0.0106 -0.072,-0.031 -0.0205,-0.0205 -0.031,-0.0444 -0.031,-0.0716 v -0.14393 c -0.06,0.0847 -0.14358,0.15381 -0.25047,0.20708 -0.10724,0.0536 -0.2346,0.0804 -0.38241,0.0804 m -2.39465,-0.0409 c -0.0275,0 -0.0519,-0.0106 -0.072,-0.031 -0.0208,-0.0205 -0.031,-0.0444 -0.031,-0.0716 v -1.92828 c 0,-0.0303 0.01,-0.0554 0.0289,-0.0762 0.0191,-0.0208 0.0438,-0.0311 0.0741,-0.0311 h 0.50165 c 0.03,0 0.0554,0.0102 0.0755,0.0311 0.0208,0.0208 0.031,0.0459 0.031,0.0762 v 0.15592 c 0.0769,-0.085 0.16652,-0.14993 0.26917,-0.19508 0.10301,-0.0452 0.21731,-0.0681 0.34361,-0.0681 h 0.18485 c 0.03,0 0.0547,0.01 0.0741,0.0289 0.0191,0.0194 0.0286,0.0437 0.0286,0.0741 v 0.44803 c 0,0.0275 -0.01,0.0515 -0.0286,0.072 -0.0194,0.0205 -0.0441,0.031 -0.0741,0.031 h -0.41521 c -0.10972,0 -0.19368,0.03 -0.25259,0.0903 -0.0589,0.06 -0.0885,0.14535 -0.0885,0.25471 v 1.03646 c 0,0.03 -0.0106,0.0547 -0.0307,0.0737 -0.0208,0.0191 -0.0462,0.0289 -0.0762,0.0289 z m -1.78224,0.0409 c -0.39758,0 -0.70873,-0.0963 -0.93345,-0.28963 -0.22472,-0.19332 -0.34396,-0.46955 -0.35771,-0.82868 -0.003,-0.0765 -0.004,-0.20143 -0.004,-0.37429 0,-0.17251 0.001,-0.29845 0.004,-0.37818 0.0109,-0.34502 0.13088,-0.61313 0.35983,-0.80363 0.22895,-0.1905 0.5394,-0.28575 0.93133,-0.28575 0.26282,0 0.49213,0.0423 0.68827,0.12771 0.19615,0.085 0.34572,0.19367 0.44838,0.32632 0.10301,0.13299 0.15699,0.26952 0.16228,0.40957 0,0.0247 -0.009,0.0455 -0.0268,0.0635 -0.0176,0.018 -0.0392,0.0268 -0.0635,0.0268 h -0.63747 c -0.0272,0 -0.0487,-0.005 -0.0635,-0.0145 -0.0155,-0.01 -0.0296,-0.024 -0.0434,-0.0434 -0.0325,-0.0762 -0.0857,-0.14217 -0.15805,-0.19685 -0.0727,-0.055 -0.17462,-0.0825 -0.30621,-0.0825 -0.3182,0 -0.4826,0.16439 -0.49353,0.49353 -0.002,0.0769 -0.004,0.19474 -0.004,0.35349 0,0.1591 0.002,0.27834 0.004,0.35736 0.0109,0.34854 0.17815,0.52246 0.50129,0.52246 0.15946,0 0.2854,-0.0395 0.37853,-0.11923 0.0931,-0.0797 0.1397,-0.20003 0.1397,-0.3616 v -0.0741 h -0.36583 c -0.0303,0 -0.0554,-0.0106 -0.0762,-0.031 -0.0205,-0.0205 -0.0307,-0.0459 -0.0307,-0.0759 v -0.32067 c 0,-0.03 0.0102,-0.0554 0.0307,-0.0762 0.0208,-0.0205 0.0459,-0.0307 0.0762,-0.0307 h 1.04423 c 0.0303,0 0.0554,0.0102 0.0762,0.0307 0.0205,0.0208 0.0307,0.0462 0.0307,0.0762 v 0.4766 c 0,0.23283 -0.0543,0.43392 -0.16228,0.60255 -0.1083,0.16862 -0.26106,0.29739 -0.45861,0.38629 -0.19756,0.0893 -0.42757,0.1337 -0.69039,0.1337 m 26.09744,-5.38939 v -0.008 c 0,-0.13159 -0.0286,-0.23354 -0.0861,-0.30621 -0.0575,-0.0727 -0.13829,-0.10901 -0.242358,-0.10901 -0.104431,0 -0.18451,0.0363 -0.240602,0.10901 -0.0561,0.0727 -0.0843,0.17462 -0.0843,0.30621 v 0.008 z m -0.324199,1.33174 c -0.334791,0 -0.597961,-0.0896 -0.789872,-0.26917 -0.191558,-0.17956 -0.290337,-0.44062 -0.295629,-0.78317 v -0.1277 c 0.0109,-0.32597 0.11254,-0.58067 0.304451,-0.76447 0.191561,-0.18345 0.4505,-0.27552 0.776819,-0.27552 0.235651,0 0.43497,0.0473 0.597961,0.14182 0.16333,0.0949 0.28539,0.22472 0.365829,0.39087 0.0811,0.16581 0.121351,0.35419 0.121351,0.5648 v 0.10301 c 0,0.03 -0.01,0.0557 -0.0307,0.0762 -0.0205,0.0205 -0.0459,0.0307 -0.0762,0.0307 h -1.30316 v 0.0247 c 0.003,0.12347 0.0318,0.2226 0.0864,0.2981 0.0547,0.0755 0.132641,0.11288 0.234241,0.11288 0.066,0 0.118538,-0.0131 0.158048,-0.0388 0.0402,-0.0261 0.0776,-0.0596 0.113239,-0.1009 0.02471,-0.0272 0.0448,-0.0445 0.06,-0.0515 0.01479,-0.007 0.0388,-0.0102 0.072,-0.0102 h 0.53834 c 0.02429,0 0.0459,0.008 0.0639,0.0229 0.0176,0.0152 0.0265,0.0332 0.0265,0.0554 0,0.0713 -0.0402,0.15486 -0.121359,0.25082 -0.0808,0.0956 -0.198609,0.17815 -0.353481,0.24659 -0.154519,0.0684 -0.33796,0.10266 -0.548568,0.10266 m -2.52659,-0.57115 c 0.117819,0 0.205309,-0.0381 0.26317,-0.11324 0.0575,-0.0751 0.0889,-0.17074 0.0945,-0.28575 0.006,-0.0769 0.008,-0.12876 0.008,-0.15628 0,-0.03 -0.003,-0.0808 -0.008,-0.15205 -0.006,-0.10689 -0.0377,-0.19544 -0.0967,-0.26529 -0.0589,-0.0699 -0.145701,-0.10477 -0.261049,-0.10477 -0.123121,0 -0.211672,0.0363 -0.265289,0.10901 -0.0533,0.0727 -0.0843,0.17321 -0.0924,0.30198 l -0.004,0.1277 0.004,0.12735 c 0.008,0.12877 0.0392,0.22931 0.0924,0.30198 0.0536,0.0727 0.142168,0.10936 0.265289,0.10936 m -0.23813,0.57115 c -0.265991,0 -0.475192,-0.0833 -0.62724,-0.25082 -0.15205,-0.16722 -0.233891,-0.40535 -0.244469,-0.71509 l -0.004,-0.14393 0.004,-0.14781 c 0.01061,-0.29916 0.0931,-0.53411 0.246589,-0.70521 0.153461,-0.17145 0.36195,-0.25717 0.62512,-0.25717 0.246589,0 0.444849,0.0797 0.595839,0.23848 v -0.8756 c 0,-0.0303 0.01021,-0.055 0.0307,-0.0741 0.0208,-0.019 0.0448,-0.0289 0.072,-0.0289 h 0.53023 c 0.0303,0 0.0557,0.01 0.0762,0.0289 0.0205,0.019 0.031,0.0437 0.031,0.0741 v 2.71357 c 0,0.03 -0.01061,0.0547 -0.031,0.0737 -0.0205,0.019 -0.0459,0.0289 -0.0762,0.0289 h -0.48931 c -0.0272,0 -0.0512,-0.0106 -0.0716,-0.031 -0.0205,-0.0205 -0.031,-0.0445 -0.031,-0.0716 v -0.12771 c -0.148161,0.18098 -0.36018,0.27129 -0.636759,0.27129 M 52.634026,175.8356 c 2.72909,0 4.09363,2.04717 4.09363,4.43512 0.0339,1.08938 0,1.70885 0,3.07022 h -1.02341 c 0,0 -0.89923,1.94522 0.68228,3.07023 0,0.0681 -5.83283,1.92405 -7.16386,-3.7525 0,0.0681 3.01589,1.90888 4.7759,1.36455 0,0 0.6858,-2.54635 0.17604,-4.08693 -0.6597,-1.9939 -3.57293,-1.43475 -4.94983,-0.6343 -3.423,1.99002 -4.5085,5.07542 -5.80178,7.45032 0,0 0.84949,-10.91671 9.21103,-10.91671" />
    <path
       inkscape:connector-curvature="0"
       id="path14000"
       style="fill:#f79011;fill-opacity:1;fill-rule:evenodd;stroke:none;stroke-width:0.35277778"
       d="m 71.907826,181.49017 c -0.391941,0 -0.699561,-0.0949 -0.922869,-0.28399 -0.223301,-0.18908 -0.342191,-0.46566 -0.3556,-0.83008 -0.003,-0.0741 -0.004,-0.19474 -0.004,-0.36195 0,-0.16969 0.0011,-0.29316 0.004,-0.36971 0.01339,-0.35666 0.13371,-0.63112 0.359838,-0.82444 0.225772,-0.19333 0.53199,-0.28999 0.918631,-0.28999 0.243771,0 0.462489,0.0399 0.655809,0.11924 0.192972,0.0794 0.346081,0.19473 0.458261,0.34537 0.112541,0.15099 0.17145,0.32879 0.176739,0.53446 0,0.0247 -0.009,0.0451 -0.02641,0.0617 -0.01799,0.0162 -0.0392,0.0247 -0.0642,0.0247 h -0.583491 c -0.0381,0 -0.0663,-0.008 -0.0843,-0.0229 -0.0176,-0.0148 -0.0335,-0.043 -0.0473,-0.084 -0.0381,-0.13441 -0.0963,-0.2286 -0.17463,-0.28187 -0.0783,-0.0533 -0.181682,-0.0801 -0.310441,-0.0801 -0.30974,0 -0.4699,0.17286 -0.480841,0.51788 -0.003,0.0741 -0.004,0.18767 -0.004,0.34148 0,0.15346 0.0011,0.27023 0.004,0.34925 0.0109,0.34573 0.171101,0.51823 0.480841,0.51823 0.125939,0 0.229661,-0.0275 0.310441,-0.0822 0.0808,-0.055 0.138999,-0.14817 0.17463,-0.2794 0.0109,-0.0416 0.02609,-0.0695 0.0455,-0.0847 0.019,-0.0152 0.048,-0.0226 0.0861,-0.0226 h 0.583491 c 0.025,0 0.0462,0.008 0.0642,0.0247 0.0176,0.0166 0.02641,0.037 0.02641,0.0617 -0.005,0.20532 -0.0642,0.38383 -0.176739,0.53446 -0.11218,0.15064 -0.265289,0.266 -0.458261,0.34537 -0.19332,0.0794 -0.412038,0.11924 -0.655809,0.11924 m -2.91712,0 c -0.39723,0 -0.70802,-0.0967 -0.9331,-0.28963 -0.22472,-0.19332 -0.34395,-0.46955 -0.35771,-0.82868 -0.003,-0.0769 -0.004,-0.20143 -0.004,-0.37394 0,-0.17286 10e-4,-0.2988 0.004,-0.37853 0.0113,-0.34502 0.13088,-0.61313 0.35983,-0.80363 0.22895,-0.1905 0.5394,-0.28575 0.93098,-0.28575 0.26353,0 0.49283,0.0423 0.68898,0.12771 0.19579,0.0847 0.34537,0.19367 0.448021,0.32632 0.102658,0.13299 0.156638,0.26952 0.162279,0.40957 0,0.0243 -0.008,0.0459 -0.0265,0.0635 -0.01799,0.018 -0.0392,0.0268 -0.0639,0.0268 h -0.63712 c -0.0279,0 -0.0487,-0.005 -0.0639,-0.0145 -0.0152,-0.01 -0.0293,-0.024 -0.043,-0.0434 -0.0332,-0.0762 -0.0857,-0.14252 -0.1584,-0.19721 -0.0723,-0.0547 -0.17497,-0.0822 -0.30656,-0.0822 -0.31785,0 -0.48225,0.16439 -0.49318,0.49353 -0.003,0.0769 -0.004,0.19474 -0.004,0.35349 0,0.15875 0.001,0.27834 0.004,0.35736 0.0109,0.34855 0.17815,0.52246 0.50165,0.52246 0.1591,0 0.28504,-0.0399 0.37818,-0.11923 0.0935,-0.0797 0.14005,-0.20003 0.14005,-0.36195 v -0.0735 h -0.36619 c -0.03,0 -0.0557,-0.0106 -0.0758,-0.031 -0.0208,-0.0208 -0.0307,-0.0459 -0.0307,-0.0762 v -0.32032 c 0,-0.0303 0.01,-0.0557 0.0307,-0.0762 0.0201,-0.0208 0.0459,-0.0307 0.0758,-0.0307 h 1.044231 c 0.03,0 0.0557,0.01 0.0762,0.0307 0.02051,0.0205 0.0307,0.0459 0.0307,0.0762 v 0.4766 c 0,0.23319 -0.054,0.43392 -0.16228,0.60219 -0.108301,0.16863 -0.261051,0.29775 -0.458611,0.38665 -0.1972,0.0892 -0.42721,0.1337 -0.69074,0.1337 m -2.70686,-1.61996 c 0.11218,0 0.20073,-0.0296 0.26529,-0.0885 0.0642,-0.0589 0.0963,-0.1457 0.0963,-0.26071 0,-0.10724 -0.0293,-0.19332 -0.0882,-0.25893 -0.0589,-0.066 -0.15028,-0.0991 -0.2734,-0.0991 h -0.46073 v 0.70731 z m -1.143,1.57869 c -0.0275,0 -0.0515,-0.0102 -0.072,-0.0307 -0.0205,-0.0208 -0.031,-0.0444 -0.031,-0.072 v -2.66841 c 0,-0.03 0.01,-0.0554 0.0289,-0.0762 0.0194,-0.0201 0.0438,-0.0303 0.0741,-0.0303 h 1.16346 c 0.3563,0 0.6357,0.0808 0.83855,0.24236 0.20285,0.16157 0.3041,0.39899 0.3041,0.71155 0,0.31221 -0.10125,0.5461 -0.3041,0.70061 -0.20285,0.15487 -0.48225,0.23213 -0.83855,0.23213 h -0.46884 v 0.8883 c 0,0.0275 -0.009,0.0512 -0.0286,0.072 -0.0194,0.0205 -0.0441,0.0307 -0.0741,0.0307 z m -2.42359,0 c -0.0275,0 -0.0515,-0.0102 -0.072,-0.0307 -0.0205,-0.0208 -0.031,-0.0444 -0.031,-0.072 v -2.67229 c 0,-0.03 0.0106,-0.055 0.031,-0.0741 0.0205,-0.0191 0.0445,-0.0286 0.072,-0.0286 h 0.57538 c 0.0303,0 0.055,0.01 0.0741,0.0286 0.0194,0.019 0.0289,0.0441 0.0289,0.0741 v 2.12971 h 1.23331 c 0.03,0 0.0554,0.0102 0.0758,0.0307 0.0208,0.0205 0.0311,0.0459 0.0311,0.0758 v 0.43604 c 0,0.0303 -0.0102,0.0547 -0.0311,0.0741 -0.0205,0.019 -0.0459,0.0286 -0.0758,0.0286 z m -1.83162,0.0413 c -0.38947,0 -0.69427,-0.0949 -0.91475,-0.28399 -0.22049,-0.18908 -0.33091,-0.47272 -0.33091,-0.8509 v -1.67745 c 0,-0.03 0.01,-0.0554 0.0289,-0.0762 0.0191,-0.0201 0.0438,-0.0303 0.0741,-0.0303 h 0.56304 c 0.03,0 0.0557,0.0102 0.0758,0.0303 0.0208,0.0208 0.031,0.0462 0.031,0.0762 v 1.66934 c 0,0.16969 0.0402,0.29774 0.12135,0.38241 0.0808,0.085 0.1965,0.12735 0.34714,0.12735 0.15099,0 0.2667,-0.043 0.34748,-0.12947 0.0811,-0.0861 0.12136,-0.21307 0.12136,-0.38029 v -1.66934 c 0,-0.03 0.0106,-0.0554 0.0307,-0.0762 0.0208,-0.0201 0.0462,-0.0303 0.0762,-0.0303 h 0.55915 c 0.03,0 0.0554,0.0102 0.0762,0.0303 0.0201,0.0208 0.0307,0.0462 0.0307,0.0762 v 1.67745 c 0,0.37818 -0.10972,0.66182 -0.32879,0.8509 -0.21943,0.18909 -0.52211,0.28399 -0.90876,0.28399 m 30.830311,1.13383 H 91.136158 V 193.617 h 0.579609 z" />
    <path
       d="m 94.865719,185.55572 h 0.672748 v 3.65584 h -0.672748 z"
       style="fill:#050301;fill-opacity:1;fill-rule:nonzero;stroke:none;stroke-width:0.35277778"
       id="path14002"
       inkscape:connector-curvature="0" />
    <path
       inkscape:connector-curvature="0"
       id="path14014"
       style="fill:#050301;fill-opacity:1;fill-rule:nonzero;stroke:none;stroke-width:0.35277778"
       d="m 102.98226,183.77635 -5.759101,-1.08373 -1.418161,9.65164 5.760502,1.08374 z" />
    <path
       inkscape:connector-curvature="0"
       id="path14026"
       style="fill:#ffffff;fill-opacity:1;fill-rule:nonzero;stroke:none;stroke-width:0.35277778"
       d="m 100.5483,184.55115 -1.310222,-0.24624 -2.875489,5.53579 1.399468,0.26599 0.566561,-1.14405 1.791762,0.33796 0.20214,1.28799 1.36666,0.25753 -1.14088,-6.29497 m -1.767771,3.46922 0.86043,-1.75366 0.313618,1.97414 z" />
    <path
       inkscape:connector-curvature="0"
       id="path14030"
       style="fill:#1d1d1d;fill-opacity:1;fill-rule:nonzero;stroke:none;stroke-width:0.35277778"
       d="m 105.32699,186.41527 v 0.15981 h -0.60819 l -0.48613,2.0828 c -0.004,0.0201 -0.008,0.0384 -0.01,0.0526 -0.003,0.0155 -0.004,0.0272 -0.004,0.0363 0,0.0423 0.0127,0.0741 0.0353,0.0945 0.024,0.0208 0.0589,0.031 0.10407,0.031 0.0907,0 0.19826,-0.0688 0.32314,-0.20603 0.12347,-0.13652 0.22507,-0.30726 0.30198,-0.51117 l 0.1464,0.0713 c -0.11077,0.29704 -0.2734,0.53905 -0.48719,0.72708 -0.21484,0.18838 -0.4325,0.28222 -0.65475,0.28222 -0.15417,0 -0.27834,-0.0367 -0.37218,-0.11007 -0.0938,-0.0741 -0.14111,-0.17215 -0.14111,-0.29422 0,-0.0413 0.005,-0.0903 0.0141,-0.14746 0.008,-0.0579 0.0219,-0.12664 0.0406,-0.20637 l 0.44485,-1.90253 h -0.45156 v -0.15981 h 0.50307 l 0.17956,-0.69991 c 0.14076,-0.005 0.27517,-0.0173 0.40287,-0.0378 0.12771,-0.0201 0.24871,-0.0476 0.36195,-0.0815 l -0.17991,0.81915 z" />
    <path
       inkscape:connector-curvature="0"
       id="path14034"
       style="fill:#1d1d1d;fill-opacity:1;fill-rule:nonzero;stroke:none;stroke-width:0.35277778"
       d="m 106.64405,187.77473 h 0.13899 c 0.38277,0 0.65723,-0.0656 0.82268,-0.19544 0.16545,-0.13053 0.24836,-0.34149 0.24836,-0.63394 0,-0.13794 -0.0339,-0.24589 -0.10196,-0.3235 -0.0684,-0.0762 -0.16263,-0.11571 -0.28222,-0.11571 -0.1972,0 -0.36159,0.10125 -0.4953,0.30163 -0.13194,0.20037 -0.24236,0.52246 -0.33055,0.96696 m 1.56351,0.56374 0.13864,0.0815 c -0.1404,0.25365 -0.3242,0.4512 -0.55174,0.59196 -0.22754,0.14005 -0.48013,0.21061 -0.75636,0.21061 -0.35771,0 -0.65193,-0.10971 -0.883,-0.32879 -0.23177,-0.21837 -0.34678,-0.49565 -0.34678,-0.83361 0,-0.44909 0.17074,-0.84526 0.5147,-1.18992 0.3429,-0.34431 0.73978,-0.51612 1.19063,-0.51612 0.28363,0 0.51541,0.0656 0.69532,0.19862 0.17992,0.13264 0.27058,0.30339 0.27058,0.51117 0,0.27446 -0.13758,0.49107 -0.41169,0.65158 -0.27375,0.15946 -0.65123,0.23883 -1.13206,0.23883 -0.036,0 -0.0776,-10e-4 -0.12524,-0.003 -0.0476,-0.003 -0.11853,-0.006 -0.21413,-0.0102 -0.0318,0.11254 -0.0547,0.21378 -0.0692,0.30198 -0.0152,0.0885 -0.0229,0.16333 -0.0229,0.22472 0,0.18485 0.0497,0.32843 0.14958,0.42756 0.0998,0.0998 0.24271,0.15029 0.42827,0.15029 0.21096,0 0.41522,-0.0617 0.61172,-0.18556 0.19685,-0.12348 0.3683,-0.29775 0.51364,-0.52176" />
    <path
       inkscape:connector-curvature="0"
       id="path14038"
       style="fill:#1d1d1d;fill-opacity:1;fill-rule:nonzero;stroke:none;stroke-width:0.35277778"
       d="m 111.67526,188.15506 0.12594,0.0646 c -0.12911,0.33972 -0.28046,0.59196 -0.45579,0.756 -0.17462,0.1644 -0.37641,0.24659 -0.60783,0.24659 -0.14746,0 -0.26071,-0.0413 -0.33973,-0.12241 -0.0794,-0.0815 -0.14287,-0.2219 -0.19085,-0.42157 l -0.11536,-0.53728 h -0.0575 c -0.0318,0.048 -0.0762,0.11465 -0.13265,0.20073 -0.39229,0.58702 -0.70273,0.88053 -0.93133,0.88053 -0.0998,0 -0.17851,-0.03 -0.23777,-0.0889 -0.0589,-0.0586 -0.0885,-0.13652 -0.0885,-0.23424 0,-0.0861 0.0279,-0.15734 0.0822,-0.21379 0.054,-0.0568 0.12453,-0.0847 0.21025,-0.0847 0.0776,0 0.14958,0.0268 0.21908,0.0811 0.0691,0.0547 0.11183,0.0818 0.12806,0.0818 0.0423,0 0.11218,-0.0564 0.20884,-0.16827 0.0956,-0.11254 0.26988,-0.34608 0.52176,-0.70238 l -0.18098,-0.83538 c -0.0314,-0.13829 -0.0614,-0.22543 -0.0899,-0.25965 -0.0282,-0.0356 -0.0677,-0.0533 -0.1203,-0.0533 -0.0522,0 -0.10301,0.0247 -0.15311,0.0751 -0.0497,0.049 -0.11853,0.15381 -0.20708,0.31256 l -0.17321,0.30586 -0.12594,-0.0681 c 0.17004,-0.35807 0.33408,-0.61701 0.49248,-0.77717 0.1591,-0.15946 0.32878,-0.23918 0.51011,-0.23918 0.14252,0 0.26141,0.0437 0.35701,0.13088 0.0952,0.0871 0.15769,0.20955 0.1898,0.36936 l 0.0649,0.32208 h 0.061 c 0.22189,-0.32173 0.39439,-0.5394 0.51681,-0.65228 0.12207,-0.11325 0.23989,-0.17004 0.35314,-0.17004 0.0974,0 0.17391,0.0275 0.22965,0.0815 0.0554,0.0543 0.0829,0.12876 0.0829,0.22507 0,0.0928 -0.025,0.16228 -0.0762,0.20814 -0.0508,0.0466 -0.12734,0.0706 -0.2293,0.0706 -0.0547,0 -0.11183,-0.0201 -0.1718,-0.0603 -0.06,-0.0395 -0.1023,-0.0589 -0.12735,-0.0589 -0.043,0 -0.0864,0.0176 -0.12912,0.0543 -0.0434,0.0363 -0.0995,0.10407 -0.16933,0.20356 l -0.2794,0.41098 0.23107,1.10808 c 0.0159,0.0836 0.043,0.14993 0.0818,0.1972 0.0385,0.0473 0.0829,0.0713 0.13264,0.0713 0.0794,0 0.16827,-0.0596 0.26811,-0.17992 0.0998,-0.11994 0.20743,-0.29668 0.32279,-0.53022" />
    <path
       inkscape:connector-curvature="0"
       id="path14042"
       style="fill:#1d1d1d;fill-opacity:1;fill-rule:nonzero;stroke:none;stroke-width:0.35277778"
       d="m 114.43307,186.41527 v 0.15981 h -0.60854 l -0.48613,2.0828 c -0.004,0.0201 -0.008,0.0384 -0.01,0.0526 -0.002,0.0155 -0.004,0.0272 -0.004,0.0363 0,0.0423 0.0123,0.0741 0.036,0.0945 0.0236,0.0208 0.0586,0.031 0.10407,0.031 0.0903,0 0.19755,-0.0688 0.32279,-0.20603 0.12418,-0.13652 0.22507,-0.30726 0.30162,-0.51117 l 0.14605,0.0713 c -0.11041,0.29704 -0.27305,0.53905 -0.48648,0.72708 -0.21484,0.18838 -0.43285,0.28222 -0.6551,0.28222 -0.15382,0 -0.27764,-0.0367 -0.37183,-0.11007 -0.0942,-0.0741 -0.14147,-0.17215 -0.14147,-0.29422 0,-0.0413 0.005,-0.0903 0.0145,-0.14746 0.008,-0.0579 0.0222,-0.12664 0.0402,-0.20637 l 0.44486,-1.90253 h -0.45156 v -0.15981 h 0.50306 l 0.17992,-0.69991 c 0.14076,-0.005 0.27481,-0.0173 0.40287,-0.0378 0.12771,-0.0201 0.24836,-0.0476 0.36195,-0.0815 l -0.17991,0.81915 z" />
    <path
       d="m 94.865719,185.55572 h 0.672748 v 3.65584 h -0.672748 z"
       style="fill:#050301;fill-opacity:1;fill-rule:nonzero;stroke:none;stroke-width:0.35277778"
       id="path14044"
       inkscape:connector-curvature="0" />
    <path
       inkscape:connector-curvature="0"
       id="path14048"
       style="fill:#c92327;fill-opacity:1;fill-rule:nonzero;stroke:none;stroke-width:0.35277778"
       d="m 95.80612,192.34394 1.416759,-9.65165 5.760151,1.08374 -1.4164,9.65164 z" />
    <path
       inkscape:connector-curvature="0"
       id="path14060"
       style="fill:#c92327;fill-opacity:1;fill-rule:nonzero;stroke:none;stroke-width:0.35277778"
       d="m 102.98296,183.77635 -5.759801,-1.08373 -1.417111,9.65164 5.760152,1.08374 z" />
    <path
       inkscape:connector-curvature="0"
       id="path14072"
       style="fill:#ffffff;fill-opacity:1;fill-rule:nonzero;stroke:none;stroke-width:0.35277778"
       d="m 100.5483,184.55115 -1.310222,-0.24624 -2.875489,5.53579 1.399468,0.26599 0.566561,-1.14405 1.791762,0.33796 0.20214,1.28799 1.36666,0.25753 -1.14088,-6.29497 m -1.767771,3.46922 0.86043,-1.75366 0.313618,1.97414 z" />
    <path
       d="m 94.865719,185.55572 h 0.672748 v 3.65584 h -0.672748 z"
       style="fill:#1d1d1d;fill-opacity:1;fill-rule:nonzero;stroke:none;stroke-width:0.35277778"
       id="path14074"
       inkscape:connector-curvature="0" />
    <path
       inkscape:connector-curvature="0"
       id="path14078"
       style="fill:#ffffff;fill-opacity:1;fill-rule:nonzero;stroke:none;stroke-width:0.35277778"
       d="m 100.5483,184.55115 -1.310222,-0.24624 -2.875489,5.53579 1.399468,0.26599 0.566561,-1.14405 1.791762,0.33796 0.20214,1.28799 1.36666,0.25753 -1.14088,-6.29497 m -1.767771,3.46922 0.86043,-1.75366 0.313618,1.97414 z" />
  </g>
</svg>
